Martel Devanagari-Light.ufo
<glyph name="iideva" format="1">
  <advance width="474"/>
  <unicode hex="0908"/>
  <outline>
    <contour>
      <point x="-29" y="634" type="line"/>
      <point x="-29" y="624" type="line"/>
      <point x="-12" y="590" type="line"/>
      <point x="316" y="590" type="line"/>
      <point x="316" y="481" type="line"/>
      <point x="165" y="481" type="line" smooth="yes"/>
      <point x="109" y="481"/>
      <point x="76" y="443"/>
      <point x="76" y="383" type="curve" smooth="yes"/>
      <point x="76" y="329"/>
      <point x="143" y="245"/>
      <point x="197" y="245" type="curve" smooth="yes"/>
      <point x="245" y="245"/>
      <point x="304" y="273"/>
      <point x="337" y="273" type="curve"/>
      <point x="349" y="267"/>
      <point x="372" y="241"/>
      <point x="372" y="196" type="curve" smooth="yes"/>
      <point x="372" y="125"/>
      <point x="289" y="95"/>
      <point x="197" y="88" type="curve"/>
      <point x="146" y="164" type="line"/>
      <point x="144" y="165"/>
      <point x="139" y="166"/>
      <point x="133" y="166" type="curve" smooth="yes"/>
      <point x="100" y="166"/>
      <point x="66" y="144"/>
      <point x="66" y="102" type="curve" smooth="yes"/>
      <point x="66" y="57"/>
      <point x="201" y="43"/>
      <point x="209" y="43" type="curve" smooth="yes"/>
      <point x="320" y="43"/>
      <point x="422" y="104"/>
      <point x="422" y="171" type="curve" smooth="yes"/>
      <point x="422" y="234"/>
      <point x="381" y="317"/>
      <point x="321" y="317" type="curve" smooth="yes"/>
      <point x="286" y="317"/>
      <point x="228" y="289"/>
      <point x="180" y="289" type="curve" smooth="yes"/>
      <point x="160" y="289"/>
      <point x="126" y="324"/>
      <point x="126" y="362" type="curve" smooth="yes"/>
      <point x="126" y="397"/>
      <point x="139" y="437"/>
      <point x="186" y="437" type="curve" smooth="yes"/>
      <point x="370" y="437" type="line"/>
      <point x="370" y="590" type="line"/>
      <point x="490" y="590" type="line"/>
      <point x="490" y="601" type="line"/>
      <point x="471" y="634" type="line"/>
    </contour>
    <contour>
      <point x="177" y="63" type="line"/>
      <point x="272" y="-122" type="line" smooth="yes"/>
      <point x="321" y="-98" type="line" smooth="yes"/>
      <point x="216" y="60" type="line"/>
    </contour>
    <contour>
      <point x="278" y="952"/>
      <point x="208" y="897"/>
      <point x="208" y="819" type="curve" smooth="yes"/>
      <point x="208" y="743"/>
      <point x="256" y="684"/>
      <point x="306" y="636" type="curve"/>
      <point x="306" y="615" type="line"/>
      <point x="366" y="634" type="line"/>
      <point x="312" y="675"/>
      <point x="258" y="741"/>
      <point x="258" y="804" type="curve" smooth="yes"/>
      <point x="258" y="868"/>
      <point x="308" y="902"/>
      <point x="363" y="902" type="curve" smooth="yes"/>
      <point x="405" y="902"/>
      <point x="439" y="882"/>
      <point x="469" y="862" type="curve"/>
      <point x="491" y="895" type="line"/>
      <point x="453" y="928"/>
      <point x="403" y="952"/>
      <point x="353" y="952" type="curve" smooth="yes"/>
    </contour>
  </outline>
</glyph>
<glyph name="udeva" format="1">
  <advance width="543"/>
  <unicode hex="0909"/>
  <outline>
    <contour>
      <point x="278" y="340" type="line"/>
      <point x="351" y="303"/>
      <point x="436" y="243"/>
      <point x="436" y="173" type="curve" smooth="yes"/>
      <point x="436" y="109"/>
      <point x="388" y="67"/>
      <point x="317" y="68" type="curve" smooth="yes"/>
      <point x="203" y="70"/>
      <point x="105" y="192"/>
      <point x="57" y="274" type="curve"/>
      <point x="27" y="255" type="line"/>
      <point x="74" y="173"/>
      <point x="168" y="19"/>
      <point x="340" y="18" type="curve" smooth="yes"/>
      <point x="425" y="17"/>
      <point x="486" y="82"/>
      <point x="486" y="155" type="curve" smooth="yes"/>
      <point x="486" y="249"/>
      <point x="396" y="321"/>
      <point x="323" y="364" type="curve"/>
    </contour>
    <contour>
      <point x="257" y="599" type="line"/>
      <point x="317" y="568"/>
      <point x="372" y="519"/>
      <point x="374" y="466" type="curve" smooth="yes"/>
      <point x="377" y="408"/>
      <point x="315" y="371"/>
      <point x="237" y="370" type="curve" smooth="yes"/>
      <point x="218" y="370"/>
      <point x="197" y="372"/>
      <point x="171" y="377" type="curve"/>
      <point x="167" y="367" type="line"/>
      <point x="189" y="327" type="line"/>
      <point x="212" y="320"/>
      <point x="231" y="318"/>
      <point x="252" y="318" type="curve" smooth="yes"/>
      <point x="340" y="319"/>
      <point x="424" y="367"/>
      <point x="424" y="440" type="curve" smooth="yes"/>
      <point x="424" y="505"/>
      <point x="377" y="562"/>
      <point x="311" y="607" type="curve"/>
    </contour>
    <contour>
      <point x="-29" y="634" type="line"/>
      <point x="-29" y="624" type="line"/>
      <point x="-12" y="590" type="line"/>
      <point x="543" y="590" type="line"/>
      <point x="543" y="601" type="line"/>
      <point x="524" y="634" type="line"/>
    </contour>
  </outline>
</glyph>
<glyph name="khadeva" format="1">
  <advance width="778"/>
  <unicode hex="0916"/>
  <outline>
    <contour>
      <point x="-29" y="634" type="line"/>
      <point x="-29" y="624" type="line"/>
      <point x="-11" y="590" type="line"/>
      <point x="611" y="590" type="line"/>
      <point x="611" y="393" type="line"/>
      <point x="602" y="393" type="line"/>
      <point x="611" y="367" type="line"/>
      <point x="611" y="275" type="line"/>
      <point x="603" y="270" type="line"/>
      <point x="611" y="265" type="line"/>
      <point x="612" y="103" type="line"/>
      <point x="610" y="13" type="line"/>
      <point x="653" y="-11" type="line"/>
      <point x="665" y="-11" type="line"/>
      <point x="665" y="590" type="line"/>
      <point x="796" y="590" type="line"/>
      <point x="796" y="601" type="line"/>
      <point x="778" y="634" type="line"/>
    </contour>
    <contour>
      <point x="356" y="482"/>
      <point x="290" y="421"/>
      <point x="290" y="328" type="curve" smooth="yes"/>
      <point x="290" y="258"/>
      <point x="340" y="187"/>
      <point x="445" y="187" type="curve" smooth="yes"/>
      <point x="510" y="187"/>
      <point x="571" y="236"/>
      <point x="615" y="274" type="curve"/>
      <point x="613" y="336" type="line"/>
      <point x="563" y="284"/>
      <point x="486" y="237"/>
      <point x="426" y="237" type="curve" smooth="yes"/>
      <point x="363" y="237"/>
      <point x="336" y="271"/>
      <point x="336" y="308" type="curve" smooth="yes"/>
      <point x="336" y="378"/>
      <point x="384" y="433"/>
      <point x="456" y="432" type="curve" smooth="yes"/>
      <point x="518" y="431"/>
      <point x="579" y="383"/>
      <point x="620" y="323" type="curve"/>
      <point x="620" y="383" type="line"/>
      <point x="589" y="421"/>
      <point x="516" y="482"/>
      <point x="436" y="482" type="curve" smooth="yes"/>
    </contour>
    <contour>
      <point x="157" y="601" type="line"/>
      <point x="169" y="557"/>
      <point x="176" y="484"/>
      <point x="176" y="440" type="curve" smooth="yes"/>
      <point x="176" y="399"/>
      <point x="167" y="366"/>
      <point x="144" y="330" type="curve"/>
      <point x="96" y="372" type="line"/>
      <point x="80" y="366"/>
      <point x="57" y="346"/>
      <point x="57" y="323" type="curve" smooth="yes"/>
      <point x="57" y="286"/>
      <point x="72" y="250"/>
      <point x="122" y="193" type="curve" smooth="yes"/>
      <point x="193" y="112"/>
      <point x="282" y="29"/>
      <point x="387" y="29" type="curve" smooth="yes"/>
      <point x="479" y="29"/>
      <point x="573" y="70"/>
      <point x="622" y="99" type="curve"/>
      <point x="623" y="157" type="line"/>
      <point x="558" y="113"/>
      <point x="481" y="79"/>
      <point x="387" y="79" type="curve" smooth="yes"/>
      <point x="274" y="79"/>
      <point x="171" y="188"/>
      <point x="133" y="236" type="curve"/>
      <point x="182" y="278"/>
      <point x="226" y="321"/>
      <point x="226" y="412" type="curve" smooth="yes"/>
      <point x="226" y="450"/>
      <point x="220" y="535"/>
      <point x="207" y="601" type="curve"/>
    </contour>
    <contour>
      <point x="637" y="634" type="move" name="top"/>
    </contour>
    <contour>
      <point x="637" y="0" type="move" name="bottom"/>
    </contour>
  </outline>
</glyph>
<glyph name="chadeva" format="1">
  <advance width="708"/>
  <unicode hex="091B"/>
  <outline>
    <contour>
      <point x="413" y="497"/>
      <point x="367" y="462"/>
      <point x="367" y="394" type="curve" smooth="yes"/>
      <point x="367" y="279"/>
      <point x="481" y="221"/>
      <point x="569" y="185" type="curve"/>
      <point x="590" y="228" type="line"/>
      <point x="518" y="244"/>
      <point x="417" y="308"/>
      <point x="417" y="382" type="curve" smooth="yes"/>
      <point x="417" y="436"/>
      <point x="457" y="453"/>
      <point x="489" y="454" type="curve" smooth="yes"/>
      <point x="546" y="453"/>
      <point x="592" y="408"/>
      <point x="592" y="348" type="curve" smooth="yes"/>
      <point x="592" y="198"/>
      <point x="438" y="78"/>
      <point x="258" y="77" type="curve" smooth="yes"/>
      <point x="207" y="77"/>
      <point x="160" y="99"/>
      <point x="160" y="142" type="curve" smooth="yes"/>
      <point x="160" y="194"/>
      <point x="205" y="245"/>
      <point x="279" y="245" type="curve" smooth="yes"/>
      <point x="295" y="245"/>
      <point x="311" y="244"/>
      <point x="328" y="239" type="curve"/>
      <point x="331" y="248" type="line"/>
      <point x="312" y="286" type="line"/>
      <point x="294" y="291"/>
      <point x="268" y="295"/>
      <point x="247" y="295" type="curve" smooth="yes"/>
      <point x="184" y="295"/>
      <point x="115" y="243"/>
      <point x="115" y="165" type="curve" smooth="yes"/>
      <point x="115" y="83"/>
      <point x="202" y="26"/>
      <point x="283" y="27" type="curve" smooth="yes"/>
      <point x="459" y="29"/>
      <point x="642" y="177"/>
      <point x="642" y="328" type="curve" smooth="yes"/>
      <point x="641" y="436"/>
      <point x="551" y="498"/>
      <point x="469" y="498" type="curve"/>
    </contour>
    <contour>
      <point x="104" y="490"/>
      <point x="51" y="433"/>
      <point x="51" y="378" type="curve" smooth="yes"/>
      <point x="51" y="301"/>
      <point x="95" y="276"/>
      <point x="166" y="241" type="curve"/>
      <point x="202" y="278" type="line"/>
      <point x="170" y="283"/>
      <point x="95" y="312"/>
      <point x="95" y="365" type="curve" smooth="yes"/>
      <point x="95" y="415"/>
      <point x="147" y="440"/>
      <point x="189" y="440" type="curve" smooth="yes"/>
      <point x="215" y="439"/>
      <point x="234" y="437"/>
      <point x="265" y="423" type="curve"/>
      <point x="242" y="478" type="line"/>
      <point x="228" y="484"/>
      <point x="200" y="490"/>
      <point x="169" y="490" type="curve" smooth="yes"/>
    </contour>
    <contour>
      <point x="-29" y="634" type="line"/>
      <point x="-29" y="624" type="line"/>
      <point x="-12" y="590" type="line"/>
      <point x="708" y="590" type="line"/>
      <point x="708" y="601" type="line"/>
      <point x="689" y="634" type="line"/>
    </contour>
    <contour>
      <point x="462" y="615" type="line"/>
      <point x="462" y="467" type="line"/>
      <point x="516" y="467" type="line"/>
      <point x="516" y="615" type="line"/>
    </contour>
    <contour>
      <point x="489" y="634" type="move" name="top"/>
    </contour>
    <contour>
      <point x="489" y="0" type="move" name="bottom"/>
    </contour>
  </outline>
</glyph>
<glyph name="jadeva" format="1">
  <advance width="679"/>
  <unicode hex="091C"/>
  <outline>
    <contour>
      <point x="28" y="409" type="line"/>
      <point x="72" y="304"/>
      <point x="153" y="110"/>
      <point x="305" y="110" type="curve" smooth="yes"/>
      <point x="361" y="110"/>
      <point x="397" y="150"/>
      <point x="397" y="198" type="curve" smooth="yes"/>
      <point x="397" y="293"/>
      <point x="286" y="390"/>
      <point x="214" y="425" type="curve"/>
      <point x="200" y="392" type="line"/>
      <point x="258" y="359"/>
      <point x="347" y="287"/>
      <point x="347" y="218" type="curve" smooth="yes"/>
      <point x="347" y="183"/>
      <point x="330" y="160"/>
      <point x="286" y="160" type="curve" smooth="yes"/>
      <point x="180" y="160"/>
      <point x="93" y="346"/>
      <point x="58" y="428" type="curve"/>
    </contour>
    <contour>
      <point x="214" y="425" type="line"/>
      <point x="267" y="382" type="line"/>
      <point x="522" y="382" type="line"/>
      <point x="522" y="425" type="line"/>
    </contour>
    <contour>
      <point x="509" y="605" type="line"/>
      <point x="508" y="13" type="line"/>
      <point x="551" y="-11" type="line"/>
      <point x="563" y="-11" type="line"/>
      <point x="563" y="605" type="line"/>
    </contour>
    <contour>
      <point x="-29" y="634" type="line"/>
      <point x="-29" y="624" type="line"/>
      <point x="-12" y="590" type="line"/>
      <point x="679" y="590" type="line"/>
      <point x="679" y="601" type="line"/>
      <point x="660" y="634" type="line"/>
    </contour>
    <contour>
      <point x="535" y="634" type="move" name="top"/>
    </contour>
    <contour>
      <point x="535" y="0" type="move" name="bottom"/>
    </contour>
  </outline>
</glyph>
<glyph name="jhadeva" format="1">
  <advance width="742"/>
  <unicode hex="091D"/>
  <outline>
    <contour>
      <point x="-29" y="634" type="line"/>
      <point x="-29" y="624" type="line"/>
      <point x="-12" y="590" type="line"/>
      <point x="316" y="590" type="line"/>
      <point x="316" y="481" type="line"/>
      <point x="165" y="481" type="line" smooth="yes"/>
      <point x="109" y="481"/>
      <point x="76" y="443"/>
      <point x="76" y="383" type="curve" smooth="yes"/>
      <point x="76" y="329"/>
      <point x="143" y="245"/>
      <point x="197" y="245" type="curve" smooth="yes"/>
      <point x="245" y="245"/>
      <point x="304" y="273"/>
      <point x="337" y="273" type="curve"/>
      <point x="349" y="267"/>
      <point x="372" y="241"/>
      <point x="372" y="196" type="curve"/>
      <point x="372" y="125"/>
      <point x="289" y="95"/>
      <point x="197" y="88" type="curve"/>
      <point x="146" y="164" type="line"/>
      <point x="144" y="165"/>
      <point x="139" y="166"/>
      <point x="133" y="166" type="curve" smooth="yes"/>
      <point x="100" y="166"/>
      <point x="66" y="144"/>
      <point x="66" y="102" type="curve" smooth="yes"/>
      <point x="66" y="57"/>
      <point x="201" y="43"/>
      <point x="209" y="43" type="curve" smooth="yes"/>
      <point x="320" y="43"/>
      <point x="422" y="104"/>
      <point x="422" y="171" type="curve"/>
      <point x="422" y="234"/>
      <point x="381" y="317"/>
      <point x="321" y="317" type="curve" smooth="yes"/>
      <point x="286" y="317"/>
      <point x="228" y="289"/>
      <point x="180" y="289" type="curve" smooth="yes"/>
      <point x="160" y="289"/>
      <point x="126" y="324"/>
      <point x="126" y="362" type="curve" smooth="yes"/>
      <point x="126" y="397"/>
      <point x="139" y="437"/>
      <point x="186" y="437" type="curve" smooth="yes"/>
      <point x="370" y="437" type="line"/>
      <point x="370" y="590" type="line"/>
      <point x="572" y="590" type="line"/>
      <point x="571" y="11" type="line"/>
      <point x="614" y="-11" type="line"/>
      <point x="626" y="-11" type="line"/>
      <point x="626" y="590" type="line"/>
      <point x="742" y="590" type="line"/>
      <point x="742" y="601" type="line"/>
      <point x="723" y="634" type="line"/>
    </contour>
    <contour>
      <point x="272" y="-122" type="line" smooth="yes"/>
      <point x="321" y="-98" type="line" smooth="yes"/>
      <point x="216" y="60" type="line"/>
      <point x="177" y="63" type="line"/>
    </contour>
    <contour>
      <point x="548" y="297"/>
      <point x="505" y="285"/>
      <point x="472" y="285" type="curve" smooth="yes"/>
      <point x="426" y="285"/>
      <point x="381" y="298"/>
      <point x="353" y="307" type="curve"/>
      <point x="392" y="255" type="line"/>
      <point x="404" y="255" type="line"/>
      <point x="422" y="250"/>
      <point x="459" y="235"/>
      <point x="505" y="235" type="curve" smooth="yes"/>
      <point x="532" y="235"/>
      <point x="556" y="245"/>
      <point x="569" y="251" type="curve"/>
      <point x="581" y="251" type="line"/>
      <point x="575" y="316" type="line"/>
    </contour>
    <contour>
      <point x="598" y="634" type="move" name="top"/>
    </contour>
    <contour>
      <point x="598" y="0" type="move" name="bottom"/>
    </contour>
  </outline>
</glyph>
<glyph name="nyadeva" format="1">
  <advance width="679"/>
  <unicode hex="091E"/>
  <outline>
    <contour>
      <point x="223" y="438"/>
      <point x="186" y="417"/>
      <point x="152" y="393" type="curve"/>
      <point x="185" y="352" type="line"/>
      <point x="219" y="372"/>
      <point x="257" y="388"/>
      <point x="292" y="388" type="curve" smooth="yes"/>
      <point x="328" y="388"/>
      <point x="373" y="348"/>
      <point x="373" y="301" type="curve" smooth="yes"/>
      <point x="373" y="253"/>
      <point x="330" y="196"/>
      <point x="247" y="195" type="curve" smooth="yes"/>
      <point x="165" y="194"/>
      <point x="105" y="252"/>
      <point x="30" y="350" type="curve"/>
      <point x="0" y="331" type="line"/>
      <point x="64" y="240"/>
      <point x="146" y="145"/>
      <point x="266" y="145" type="curve" smooth="yes"/>
      <point x="335" y="145"/>
      <point x="413" y="190"/>
      <point x="413" y="278" type="curve" smooth="yes"/>
      <point x="413" y="394"/>
      <point x="302" y="438"/>
      <point x="248" y="438" type="curve" smooth="yes"/>
    </contour>
    <contour>
      <point x="476" y="307"/>
      <point x="443" y="299"/>
      <point x="406" y="308" type="curve"/>
      <point x="371" y="265" type="line"/>
      <point x="414" y="265" type="line"/>
      <point x="427" y="261"/>
      <point x="451" y="254"/>
      <point x="471" y="254" type="curve" smooth="yes"/>
      <point x="491" y="254"/>
      <point x="505" y="260"/>
      <point x="517" y="266" type="curve"/>
      <point x="513" y="328" type="line"/>
    </contour>
    <contour>
      <point x="509" y="605" type="line"/>
      <point x="508" y="308" type="line"/>
      <point x="468" y="308" type="line"/>
      <point x="508" y="261" type="line"/>
      <point x="508" y="13" type="line"/>
      <point x="551" y="-11" type="line"/>
      <point x="563" y="-11" type="line"/>
      <point x="563" y="605" type="line"/>
    </contour>
    <contour>
      <point x="-29" y="634" type="line"/>
      <point x="-29" y="624" type="line"/>
      <point x="-12" y="590" type="line"/>
      <point x="679" y="590" type="line"/>
      <point x="679" y="601" type="line"/>
      <point x="660" y="634" type="line"/>
    </contour>
    <contour>
      <point x="535" y="634" type="move" name="top"/>
    </contour>
    <contour>
      <point x="535" y="0" type="move" name="bottom"/>
    </contour>
  </outline>
</glyph>
<glyph name="tthadeva" format="1">
  <advance width="552"/>
  <unicode hex="0920"/>
  <outline>
    <contour>
      <point x="206" y="444"/>
      <point x="58" y="417"/>
      <point x="58" y="266" type="curve" smooth="yes"/>
      <point x="58" y="156"/>
      <point x="142" y="53"/>
      <point x="270" y="53" type="curve" smooth="yes"/>
      <point x="389" y="53"/>
      <point x="484" y="149"/>
      <point x="484" y="247" type="curve" smooth="yes"/>
      <point x="484" y="332"/>
      <point x="416" y="399"/>
      <point x="319" y="452" type="curve"/>
    </contour>
    <contour>
      <point x="363" y="385"/>
      <point x="434" y="327"/>
      <point x="434" y="261" type="curve" smooth="yes"/>
      <point x="434" y="175"/>
      <point x="356" y="97"/>
      <point x="238" y="97" type="curve" smooth="yes"/>
      <point x="180" y="97"/>
      <point x="108" y="145"/>
      <point x="108" y="242" type="curve" smooth="yes"/>
      <point x="108" y="348"/>
      <point x="230" y="401"/>
      <point x="323" y="402" type="curve"/>
    </contour>
    <contour>
      <point x="293" y="577"/>
      <point x="309" y="548"/>
      <point x="309" y="522" type="curve" smooth="yes"/>
      <point x="309" y="489"/>
      <point x="298" y="455"/>
      <point x="289" y="442" type="curve"/>
      <point x="338" y="419" type="line"/>
      <point x="352" y="445"/>
      <point x="364" y="480"/>
      <point x="364" y="507" type="curve" smooth="yes"/>
      <point x="364" y="538"/>
      <point x="349" y="568"/>
      <point x="330" y="598" type="curve"/>
      <point x="279" y="599" type="line"/>
    </contour>
    <contour>
      <point x="-29" y="634" type="line"/>
      <point x="-29" y="624" type="line"/>
      <point x="-12" y="590" type="line"/>
      <point x="552" y="590" type="line"/>
      <point x="552" y="601" type="line"/>
      <point x="533" y="634" type="line"/>
    </contour>
    <contour>
      <point x="306" y="634" type="move" name="top"/>
    </contour>
    <contour>
      <point x="270" y="56" type="move" name="bottom"/>
    </contour>
  </outline>
</glyph>
<glyph name="uni092C" format="1">
  <advance width="630"/>
  <unicode hex="092C"/>
  <outline>
    <contour>
      <point x="-29" y="634" type="line"/>
      <point x="-29" y="624" type="line"/>
      <point x="-12" y="590" type="line"/>
      <point x="461" y="590" type="line"/>
      <point x="461" y="347" type="line"/>
      <point x="451" y="347" type="line"/>
      <point x="461" y="328" type="line"/>
      <point x="461" y="232" type="line"/>
      <point x="448" y="217" type="line"/>
      <point x="461" y="214" type="line"/>
      <point x="460" y="11" type="line"/>
      <point x="501" y="-11" type="line"/>
      <point x="512" y="-11" type="line"/>
      <point x="512" y="590" type="line"/>
      <point x="630" y="590" type="line"/>
      <point x="630" y="601" type="line"/>
      <point x="612" y="634" type="line"/>
    </contour>
    <contour>
      <point x="166" y="412" type="line"/>
      <point x="329" y="165" type="line"/>
      <point x="361" y="182" type="line"/>
      <point x="201" y="425" type="line"/>
    </contour>
    <contour>
      <point x="166" y="461"/>
      <point x="66" y="402"/>
      <point x="66" y="280" type="curve" smooth="yes"/>
      <point x="66" y="167"/>
      <point x="163" y="113"/>
      <point x="253" y="113" type="curve" smooth="yes"/>
      <point x="328" y="113"/>
      <point x="413" y="165"/>
      <point x="467" y="223" type="curve"/>
      <point x="470" y="297" type="line"/>
      <point x="423" y="234"/>
      <point x="322" y="163"/>
      <point x="233" y="163" type="curve" smooth="yes"/>
      <point x="159" y="163"/>
      <point x="111" y="209"/>
      <point x="111" y="260" type="curve" smooth="yes"/>
      <point x="111" y="337"/>
      <point x="172" y="411"/>
      <point x="268" y="411" type="curve" smooth="yes"/>
      <point x="347" y="411"/>
      <point x="440" y="325"/>
      <point x="464" y="276" type="curve"/>
      <point x="466" y="337" type="line"/>
      <point x="434" y="382"/>
      <point x="367" y="461"/>
      <point x="248" y="461" type="curve" smooth="yes"/>
    </contour>
    <contour>
      <point x="488" y="634" type="move" name="top"/>
    </contour>
    <contour>
      <point x="488" y="0" type="move" name="bottom"/>
    </contour>
  </outline>
</glyph>
<glyph name="bhadeva" format="1">
  <advance width="688"/>
  <unicode hex="092D"/>
  <outline>
    <contour>
      <point x="341" y="634" type="line"/>
      <point x="341" y="624" type="line"/>
      <point x="359" y="590" type="line"/>
      <point x="518" y="590" type="line"/>
      <point x="517" y="13" type="line"/>
      <point x="559" y="-11" type="line"/>
      <point x="571" y="-11" type="line"/>
      <point x="571" y="590" type="line"/>
      <point x="688" y="590" type="line"/>
      <point x="688" y="601" type="line"/>
      <point x="669" y="634" type="line"/>
    </contour>
    <contour>
      <point x="175" y="315"/>
      <point x="165" y="307"/>
      <point x="165" y="290" type="curve" smooth="yes"/>
      <point x="165" y="266"/>
      <point x="197" y="230"/>
      <point x="220" y="203" type="curve" smooth="yes"/>
      <point x="234" y="185"/>
      <point x="267" y="156"/>
      <point x="285" y="156" type="curve" smooth="yes"/>
      <point x="300" y="156"/>
      <point x="306" y="164"/>
      <point x="306" y="178" type="curve" smooth="yes"/>
      <point x="306" y="197"/>
      <point x="303" y="246"/>
      <point x="301" y="278" type="curve"/>
      <point x="252" y="310" type="line"/>
      <point x="237" y="312"/>
      <point x="206" y="315"/>
      <point x="196" y="315" type="curve" smooth="yes"/>
    </contour>
    <contour>
      <point x="100" y="650"/>
      <point x="57" y="609"/>
      <point x="57" y="551" type="curve" smooth="yes"/>
      <point x="57" y="462"/>
      <point x="135" y="414"/>
      <point x="245" y="377" type="curve"/>
      <point x="258" y="417" type="line"/>
      <point x="185" y="440"/>
      <point x="107" y="475"/>
      <point x="107" y="535" type="curve" smooth="yes"/>
      <point x="107" y="578"/>
      <point x="135" y="606"/>
      <point x="170" y="606" type="curve" smooth="yes"/>
      <point x="210" y="606"/>
      <point x="238" y="575"/>
      <point x="238" y="516" type="curve" smooth="yes"/>
      <point x="238" y="474"/>
      <point x="238" y="447"/>
      <point x="238" y="407" type="curve"/>
      <point x="238" y="390" type="line"/>
      <point x="238" y="251" type="line"/>
      <point x="550" y="251" type="line"/>
      <point x="550" y="295" type="line"/>
      <point x="292" y="295" type="line"/>
      <point x="292" y="503" type="line" smooth="yes"/>
      <point x="292" y="623"/>
      <point x="204" y="650"/>
      <point x="150" y="650" type="curve" smooth="yes"/>
    </contour>
    <contour>
      <point x="544" y="634" type="move" name="top"/>
    </contour>
    <contour>
      <point x="544" y="0" type="move" name="bottom"/>
    </contour>
  </outline>
</glyph>
<glyph name="madeva" format="1">
  <advance width="590"/>
  <unicode hex="092E"/>
  <outline>
    <contour>
      <point x="-29" y="634" type="line"/>
      <point x="-29" y="624" type="line"/>
      <point x="-12" y="590" type="line"/>
      <point x="124" y="590" type="line"/>
      <point x="124" y="268" type="line"/>
      <point x="452" y="268" type="line"/>
      <point x="452" y="312" type="line"/>
      <point x="178" y="312" type="line"/>
      <point x="178" y="590" type="line"/>
      <point x="420" y="590" type="line"/>
      <point x="419" y="13" type="line"/>
      <point x="461" y="-11" type="line"/>
      <point x="473" y="-11" type="line"/>
      <point x="473" y="590" type="line"/>
      <point x="590" y="590" type="line"/>
      <point x="590" y="601" type="line"/>
      <point x="570" y="634" type="line"/>
    </contour>
    <contour>
      <point x="61" y="334"/>
      <point x="51" y="326"/>
      <point x="51" y="308" type="curve" smooth="yes"/>
      <point x="51" y="286"/>
      <point x="83" y="249"/>
      <point x="105" y="223" type="curve"/>
      <point x="120" y="204"/>
      <point x="153" y="175"/>
      <point x="171" y="175" type="curve" smooth="yes"/>
      <point x="185" y="175"/>
      <point x="192" y="183"/>
      <point x="192" y="196" type="curve" smooth="yes"/>
      <point x="192" y="217"/>
      <point x="188" y="264"/>
      <point x="186" y="297" type="curve"/>
      <point x="138" y="329" type="line"/>
      <point x="123" y="331"/>
      <point x="92" y="334"/>
      <point x="82" y="334" type="curve" smooth="yes"/>
    </contour>
    <contour>
      <point x="446" y="634" type="move" name="top"/>
    </contour>
    <contour>
      <point x="446" y="0" type="move" name="bottom"/>
    </contour>
  </outline>
</glyph>
<glyph name="radeva" format="1">
  <advance width="367"/>
  <unicode hex="0930"/>
  <outline>
    <contour>
      <point x="179" y="557"/>
      <point x="186" y="484"/>
      <point x="186" y="440" type="curve" smooth="yes"/>
      <point x="186" y="399"/>
      <point x="177" y="366"/>
      <point x="154" y="330" type="curve"/>
      <point x="106" y="372" type="line"/>
      <point x="90" y="366"/>
      <point x="67" y="346"/>
      <point x="67" y="323" type="curve" smooth="yes"/>
      <point x="67" y="287"/>
      <point x="82" y="250"/>
      <point x="131" y="194" type="curve" smooth="yes"/>
      <point x="314" y="-15" type="line"/>
      <point x="353" y="14" type="line"/>
      <point x="143" y="236" type="line"/>
      <point x="189" y="274"/>
      <point x="236" y="326"/>
      <point x="236" y="412" type="curve" smooth="yes"/>
      <point x="236" y="450"/>
      <point x="230" y="535"/>
      <point x="217" y="601" type="curve"/>
      <point x="167" y="601" type="line"/>
    </contour>
    <contour>
      <point x="-29" y="634" type="line"/>
      <point x="-29" y="624" type="line"/>
      <point x="-12" y="590" type="line"/>
      <point x="367" y="590" type="line"/>
      <point x="367" y="601" type="line"/>
      <point x="349" y="634" type="line"/>
    </contour>
    <contour>
      <point x="200" y="634" type="move" name="top"/>
    </contour>
    <contour>
      <point x="200" y="0" type="move" name="bottom"/>
    </contour>
  </outline>
</glyph>
<glyph name="uni0932" format="1">
  <advance width="693"/>
  <unicode hex="0932"/>
  <outline>
    <contour>
      <point x="116" y="442"/>
      <point x="53" y="381"/>
      <point x="53" y="301" type="curve" smooth="yes"/>
      <point x="53" y="140"/>
      <point x="170" y="24"/>
      <point x="257" y="-52" type="curve"/>
      <point x="276" y="-32" type="line"/>
      <point x="167" y="63"/>
      <point x="103" y="162"/>
      <point x="103" y="267" type="curve" smooth="yes"/>
      <point x="103" y="341"/>
      <point x="146" y="392"/>
      <point x="211" y="392" type="curve" smooth="yes"/>
      <point x="265" y="392"/>
      <point x="315" y="345"/>
      <point x="346" y="304" type="curve"/>
      <point x="370" y="334" type="line"/>
      <point x="332" y="382"/>
      <point x="268" y="442"/>
      <point x="188" y="442" type="curve" smooth="yes"/>
    </contour>
    <contour>
      <point x="363" y="424"/>
      <point x="302" y="311"/>
      <point x="279" y="212" type="curve"/>
      <point x="338" y="178" type="line"/>
      <point x="356" y="258"/>
      <point x="402" y="380"/>
      <point x="473" y="380" type="curve" smooth="yes"/>
      <point x="504" y="380"/>
      <point x="534" y="345"/>
      <point x="555" y="315" type="curve"/>
      <point x="556" y="353" type="line"/>
      <point x="530" y="391"/>
      <point x="494" y="424"/>
      <point x="454" y="424" type="curve" smooth="yes"/>
    </contour>
    <contour>
      <point x="523" y="610" type="line"/>
      <point x="522" y="13" type="line"/>
      <point x="565" y="-11" type="line"/>
      <point x="577" y="-11" type="line"/>
      <point x="577" y="610" type="line"/>
    </contour>
    <contour>
      <point x="-29" y="634" type="line"/>
      <point x="-29" y="624" type="line"/>
      <point x="-12" y="590" type="line"/>
      <point x="693" y="590" type="line"/>
      <point x="693" y="601" type="line"/>
      <point x="674" y="634" type="line"/>
    </contour>
    <contour>
      <point x="549" y="634" type="move" name="top"/>
    </contour>
    <contour>
      <point x="549" y="0" type="move" name="bottom"/>
    </contour>
  </outline>
</glyph>
<glyph name="vadeva" format="1">
  <advance width="626"/>
  <unicode hex="0935"/>
  <outline>
    <contour>
      <point x="-29" y="634" type="line"/>
      <point x="-29" y="624" type="line"/>
      <point x="-12" y="590" type="line"/>
      <point x="457" y="590" type="line"/>
      <point x="457" y="344" type="line"/>
      <point x="446" y="344" type="line"/>
      <point x="457" y="324" type="line"/>
      <point x="457" y="226" type="line"/>
      <point x="448" y="213" type="line"/>
      <point x="457" y="211" type="line"/>
      <point x="456" y="13" type="line"/>
      <point x="499" y="-11" type="line"/>
      <point x="510" y="-11" type="line"/>
      <point x="510" y="590" type="line"/>
      <point x="626" y="590" type="line"/>
      <point x="626" y="601" type="line"/>
      <point x="607" y="634" type="line"/>
    </contour>
    <contour>
      <point x="166" y="461"/>
      <point x="66" y="402"/>
      <point x="66" y="280" type="curve" smooth="yes"/>
      <point x="66" y="167"/>
      <point x="163" y="113"/>
      <point x="253" y="113" type="curve" smooth="yes"/>
      <point x="328" y="113"/>
      <point x="413" y="165"/>
      <point x="467" y="223" type="curve"/>
      <point x="470" y="297" type="line"/>
      <point x="423" y="234"/>
      <point x="322" y="163"/>
      <point x="233" y="163" type="curve" smooth="yes"/>
      <point x="159" y="163"/>
      <point x="111" y="209"/>
      <point x="111" y="260" type="curve" smooth="yes"/>
      <point x="111" y="337"/>
      <point x="172" y="411"/>
      <point x="268" y="411" type="curve" smooth="yes"/>
      <point x="347" y="411"/>
      <point x="440" y="318"/>
      <point x="464" y="269" type="curve"/>
      <point x="466" y="330" type="line"/>
      <point x="434" y="378"/>
      <point x="357" y="461"/>
      <point x="248" y="461" type="curve" smooth="yes"/>
    </contour>
    <contour>
      <point x="483" y="634" type="move" name="top"/>
    </contour>
    <contour>
      <point x="483" y="0" type="move" name="bottom"/>
    </contour>
  </outline>
</glyph>
<glyph name="shadeva" format="1">
  <advance width="698"/>
  <unicode hex="0936"/>
  <outline>
    <contour>
      <point x="160" y="634"/>
      <point x="116" y="591"/>
      <point x="116" y="524" type="curve" smooth="yes"/>
      <point x="116" y="427"/>
      <point x="214" y="360"/>
      <point x="320" y="324" type="curve"/>
      <point x="341" y="366" type="line"/>
      <point x="266" y="381"/>
      <point x="166" y="444"/>
      <point x="166" y="512" type="curve" smooth="yes"/>
      <point x="166" y="565"/>
      <point x="203" y="590"/>
      <point x="240" y="590" type="curve" smooth="yes"/>
      <point x="303" y="590"/>
      <point x="348" y="529"/>
      <point x="348" y="472" type="curve" smooth="yes"/>
      <point x="348" y="361"/>
      <point x="270" y="265"/>
      <point x="153" y="224" type="curve"/>
      <point x="160" y="205" type="line"/>
      <point x="148" y="303" type="line"/>
      <point x="141" y="306"/>
      <point x="132" y="308"/>
      <point x="119" y="308" type="curve" smooth="yes"/>
      <point x="89" y="308"/>
      <point x="51" y="285"/>
      <point x="51" y="239" type="curve" smooth="yes"/>
      <point x="51" y="214"/>
      <point x="82" y="181"/>
      <point x="147" y="181" type="curve"/>
      <point x="255" y="181"/>
      <point x="398" y="324"/>
      <point x="398" y="452" type="curve" smooth="yes"/>
      <point x="398" y="558"/>
      <point x="314" y="634"/>
      <point x="220" y="634" type="curve"/>
    </contour>
    <contour>
      <point x="304" y="-15" type="line"/>
      <point x="348" y="18" type="line"/>
      <point x="159" y="198" type="line"/>
      <point x="115" y="201" type="line"/>
    </contour>
    <contour>
      <point x="528" y="610" type="line"/>
      <point x="527" y="13" type="line"/>
      <point x="570" y="-11" type="line"/>
      <point x="582" y="-11" type="line"/>
      <point x="582" y="610" type="line"/>
    </contour>
    <contour>
      <point x="-29" y="634" type="line"/>
      <point x="-29" y="624" type="line"/>
      <point x="-12" y="590" type="line"/>
      <point x="698" y="590" type="line"/>
      <point x="698" y="601" type="line"/>
      <point x="679" y="634" type="line"/>
    </contour>
    <contour>
      <point x="554" y="634" type="move" name="top"/>
    </contour>
    <contour>
      <point x="554" y="0" type="move" name="bottom"/>
    </contour>
  </outline>
</glyph>
<glyph name="ssadeva" format="1">
  <advance width="561"/>
  <unicode hex="0937"/>
  <outline>
    <contour>
      <point x="-29" y="634" type="line"/>
      <point x="-29" y="624" type="line"/>
      <point x="-11" y="590" type="line"/>
      <point x="94" y="590" type="line"/>
      <point x="94" y="320" type="line" smooth="yes"/>
      <point x="94" y="261"/>
      <point x="109" y="239"/>
      <point x="132" y="216" type="curve" smooth="yes"/>
      <point x="177" y="176"/>
      <point x="213" y="166"/>
      <point x="256" y="166" type="curve" smooth="yes"/>
      <point x="307" y="166"/>
      <point x="360" y="199"/>
      <point x="388" y="217" type="curve"/>
      <point x="399" y="217" type="line"/>
      <point x="394" y="282" type="line"/>
      <point x="353" y="250"/>
      <point x="294" y="216"/>
      <point x="246" y="216" type="curve" smooth="yes"/>
      <point x="185" y="216"/>
      <point x="148" y="252"/>
      <point x="148" y="319" type="curve" smooth="yes"/>
      <point x="148" y="590" type="line"/>
      <point x="391" y="590" type="line"/>
      <point x="390" y="13" type="line"/>
      <point x="432" y="-11" type="line"/>
      <point x="444" y="-11" type="line"/>
      <point x="444" y="590" type="line"/>
      <point x="561" y="590" type="line"/>
      <point x="561" y="601" type="line"/>
      <point x="541" y="634" type="line"/>
    </contour>
    <contour>
      <point x="130" y="558" type="line"/>
      <point x="402" y="267" type="line"/>
      <point x="426" y="294" type="line"/>
      <point x="148" y="590" type="line"/>
    </contour>
    <contour>
      <point x="417" y="634" type="move" name="top"/>
    </contour>
    <contour>
      <point x="417" y="0" type="move" name="bottom"/>
    </contour>
  </outline>
</glyph>
<glyph name="hadeva" format="1">
  <advance width="514"/>
  <unicode hex="0939"/>
  <outline>
    <contour>
      <point x="-29" y="634" type="line"/>
      <point x="-29" y="624" type="line"/>
      <point x="-12" y="590" type="line"/>
      <point x="355" y="590" type="line"/>
      <point x="355" y="472" type="line"/>
      <point x="155" y="472" type="line" smooth="yes"/>
      <point x="100" y="472"/>
      <point x="66" y="441"/>
      <point x="66" y="392" type="curve" smooth="yes"/>
      <point x="66" y="349"/>
      <point x="103" y="283"/>
      <point x="142" y="245" type="curve"/>
      <point x="170" y="272" type="line"/>
      <point x="130" y="307"/>
      <point x="116" y="344"/>
      <point x="116" y="367" type="curve" smooth="yes"/>
      <point x="116" y="391"/>
      <point x="129" y="428"/>
      <point x="176" y="428" type="curve" smooth="yes"/>
      <point x="409" y="428" type="line"/>
      <point x="409" y="590" type="line"/>
      <point x="533" y="590" type="line"/>
      <point x="533" y="601" type="line"/>
      <point x="514" y="634" type="line"/>
    </contour>
    <contour>
      <point x="158" y="328"/>
      <point x="104" y="243"/>
      <point x="104" y="169" type="curve" smooth="yes"/>
      <point x="104" y="42"/>
      <point x="233" y="-44"/>
      <point x="357" y="-110" type="curve"/>
      <point x="372" y="-87" type="line"/>
      <point x="231" y="-2"/>
      <point x="154" y="62"/>
      <point x="154" y="153" type="curve" smooth="yes"/>
      <point x="154" y="238"/>
      <point x="226" y="284"/>
      <point x="285" y="285" type="curve" smooth="yes"/>
      <point x="357" y="286"/>
      <point x="407" y="238"/>
      <point x="407" y="196" type="curve" smooth="yes"/>
      <point x="407" y="143"/>
      <point x="363" y="102"/>
      <point x="321" y="71" type="curve"/>
      <point x="321" y="69" type="line"/>
      <point x="364" y="26" type="line"/>
      <point x="408" y="58"/>
      <point x="457" y="110"/>
      <point x="457" y="171" type="curve" smooth="yes"/>
      <point x="457" y="248"/>
      <point x="359" y="330"/>
      <point x="263" y="329" type="curve" smooth="yes"/>
    </contour>
    <contour>
      <point x="382" y="634" type="move" name="top"/>
    </contour>
    <contour>
      <point x="382" y="0" type="move" name="bottom"/>
    </contour>
  </outline>
</glyph>
<glyph name="nuktadeva" format="1">
  <advance width="0"/>
  <unicode hex="093C"/>
  <outline>
    <contour>
      <point x="-216" y="-128" type="line"/>
      <point x="-153" y="-191" type="line"/>
      <point x="-90" y="-128" type="line"/>
      <point x="-153" y="-65" type="line"/>
    </contour>
    <contour>
      <point x="-153" y="0" type="move" name="nukta"/>
    </contour>
  </outline>
</glyph>
<glyph name="uni0940" format="1">
  <advance width="287"/>
  <unicode hex="0940"/>
  <outline>
    <contour>
      <point x="-29" y="634" type="line"/>
      <point x="-29" y="624" type="line"/>
      <point x="-12" y="590" type="line"/>
      <point x="117" y="590" type="line"/>
      <point x="116" y="13" type="line"/>
      <point x="159" y="-11" type="line"/>
      <point x="171" y="-11" type="line"/>
      <point x="171" y="590" type="line"/>
      <point x="287" y="590" type="line"/>
      <point x="287" y="601" type="line"/>
      <point x="268" y="634" type="line"/>
    </contour>
    <contour>
      <point x="-205" y="1010"/>
      <point x="-257" y="947"/>
      <point x="-257" y="878" type="curve" smooth="yes"/>
      <point x="-257" y="804"/>
      <point x="-212" y="742"/>
      <point x="-176" y="708" type="curve"/>
      <point x="-139" y="726" type="line"/>
      <point x="-139" y="728" type="line"/>
      <point x="-165" y="753"/>
      <point x="-203" y="806"/>
      <point x="-203" y="858" type="curve" smooth="yes"/>
      <point x="-203" y="905"/>
      <point x="-170" y="960"/>
      <point x="-110" y="960" type="curve" smooth="yes"/>
      <point x="-5" y="960"/>
      <point x="79" y="739"/>
      <point x="127" y="616" type="curve"/>
      <point x="174" y="616" type="line"/>
      <point x="116" y="764"/>
      <point x="33" y="1010"/>
      <point x="-126" y="1010" type="curve" smooth="yes"/>
    </contour>
  </outline>
</glyph>
<glyph name="uvowelsigndeva" format="1">
  <advance width="0"/>
  <unicode hex="0941"/>
  <outline>
    <contour>
      <point x="-522" y="-66" type="line"/>
      <point x="-392" y="-267"/>
      <point x="-286" y="-328"/>
      <point x="-184" y="-328" type="curve" smooth="yes"/>
      <point x="-86" y="-328"/>
      <point x="-29" y="-260"/>
      <point x="-29" y="-205" type="curve" smooth="yes"/>
      <point x="-29" y="-140"/>
      <point x="-118" y="-68"/>
      <point x="-196" y="-68" type="curve" smooth="yes"/>
      <point x="-225" y="-68"/>
      <point x="-265" y="-80"/>
      <point x="-292" y="-95" type="curve"/>
      <point x="-258" y="-145" type="line"/>
      <point x="-230" y="-129"/>
      <point x="-189" y="-118"/>
      <point x="-161" y="-118" type="curve" smooth="yes"/>
      <point x="-108" y="-118"/>
      <point x="-79" y="-158"/>
      <point x="-79" y="-187" type="curve" smooth="yes"/>
      <point x="-79" y="-239"/>
      <point x="-124" y="-278"/>
      <point x="-196" y="-278" type="curve" smooth="yes"/>
      <point x="-303" y="-278"/>
      <point x="-407" y="-174"/>
      <point x="-487" y="-47" type="curve"/>
    </contour>
    <contour>
      <point x="-157" y="0" type="move" name="_bottom"/>
    </contour>
  </outline>
</glyph>
<glyph name="uuvowelsigndeva" format="1">
  <advance width="0"/>
  <unicode hex="0942"/>
  <outline>
    <contour>
      <point x="80" y="-339" type="line"/>
      <point x="-50" y="-138"/>
      <point x="-156" y="-77"/>
      <point x="-258" y="-77" type="curve" smooth="yes"/>
      <point x="-356" y="-77"/>
      <point x="-413" y="-145"/>
      <point x="-413" y="-200" type="curve" smooth="yes"/>
      <point x="-413" y="-265"/>
      <point x="-324" y="-337"/>
      <point x="-246" y="-337" type="curve" smooth="yes"/>
      <point x="-217" y="-337"/>
      <point x="-177" y="-325"/>
      <point x="-150" y="-310" type="curve"/>
      <point x="-184" y="-260" type="line"/>
      <point x="-212" y="-276"/>
      <point x="-253" y="-287"/>
      <point x="-281" y="-287" type="curve" smooth="yes"/>
      <point x="-334" y="-287"/>
      <point x="-363" y="-247"/>
      <point x="-363" y="-218" type="curve" smooth="yes"/>
      <point x="-363" y="-166"/>
      <point x="-318" y="-127"/>
      <point x="-246" y="-127" type="curve" smooth="yes"/>
      <point x="-139" y="-127"/>
      <point x="-35" y="-231"/>
      <point x="45" y="-358" type="curve"/>
    </contour>
    <contour>
      <point x="-153" y="0" type="move" name="_bottom"/>
    </contour>
  </outline>
</glyph>
<glyph name="ecandravowelsigndeva" format="1">
  <advance width="600"/>
  <unicode hex="0945"/>
  <outline>
    <contour>
      <point x="2" y="874" type="line"/>
      <point x="-28" y="835"/>
      <point x="-92" y="784"/>
      <point x="-182" y="785" type="curve" smooth="yes"/>
      <point x="-247" y="786"/>
      <point x="-299" y="831"/>
      <point x="-340" y="885" type="curve"/>
      <point x="-363" y="868" type="line"/>
      <point x="-326" y="812"/>
      <point x="-255" y="736"/>
      <point x="-153" y="735" type="curve" smooth="yes"/>
      <point x="-59" y="734"/>
      <point x="-4" y="780"/>
      <point x="42" y="837" type="curve"/>
    </contour>
    <contour>
      <point x="-153" y="634" type="move" name="_top"/>
    </contour>
  </outline>
</glyph>
<glyph name="dddhadeva" format="1">
  <advance width="551"/>
  <unicode hex="095C"/>
  <outline>
    <component base="ddadeva"/>
    <component base="nuktadeva" xOffset="431" yOffset="35"/>
    <contour>
      <point x="420" y="650" type="move" name="top"/>
    </contour>
    <contour>
      <point x="359" y="18" type="move" name="bottom"/>
    </contour>
  </outline>
</glyph>
<glyph name="fadeva" format="1">
  <advance width="787"/>
  <unicode hex="095E"/>
  <outline>
    <component base="uni092B"/>
    <component base="nuktadeva" xOffset="339" yOffset="204"/>
    <contour>
      <point x="399" y="634" type="move" name="top"/>
    </contour>
    <contour>
      <point x="399" y="0" type="move" name="bottom"/>
    </contour>
  </outline>
</glyph>
<glyph name="uni09480930094D" format="1">
  <advance width="0"/>
  <outline>
    <contour>
      <point x="-165" y="952"/>
      <point x="-235" y="897"/>
      <point x="-235" y="819" type="curve" smooth="yes"/>
      <point x="-235" y="743"/>
      <point x="-187" y="684"/>
      <point x="-137" y="636" type="curve"/>
      <point x="-137" y="615" type="line"/>
      <point x="-77" y="634" type="line"/>
      <point x="-131" y="675"/>
      <point x="-185" y="741"/>
      <point x="-185" y="804" type="curve" smooth="yes"/>
      <point x="-185" y="868"/>
      <point x="-135" y="902"/>
      <point x="-80" y="902" type="curve" smooth="yes"/>
      <point x="-38" y="902"/>
      <point x="-4" y="882"/>
      <point x="26" y="862" type="curve"/>
      <point x="48" y="895" type="line"/>
      <point x="10" y="928"/>
      <point x="-40" y="952"/>
      <point x="-90" y="952" type="curve" smooth="yes"/>
    </contour>
    <contour>
      <point x="-488" y="861"/>
      <point x="-510" y="843"/>
      <point x="-510" y="812" type="curve" smooth="yes"/>
      <point x="-510" y="788"/>
      <point x="-497" y="768"/>
      <point x="-487" y="759" type="curve"/>
      <point x="-486" y="759" type="line"/>
      <point x="-361" y="779" type="line"/>
      <point x="-339" y="769"/>
      <point x="-283" y="701"/>
      <point x="-210" y="604" type="curve"/>
      <point x="-184" y="607" type="line"/>
      <point x="-261" y="736"/>
      <point x="-365" y="861"/>
      <point x="-453" y="861" type="curve" smooth="yes"/>
    </contour>
    <contour>
      <point x="-473" y="1037"/>
      <point x="-497" y="1017"/>
      <point x="-497" y="983" type="curve" smooth="yes"/>
      <point x="-497" y="956"/>
      <point x="-481" y="932"/>
      <point x="-467" y="921" type="curve"/>
      <point x="-466" y="921" type="line"/>
      <point x="-353" y="955" type="line"/>
      <point x="-335" y="944"/>
      <point x="-289" y="876"/>
      <point x="-235" y="775" type="curve" smooth="yes"/>
      <point x="-220" y="747"/>
      <point x="-184" y="662"/>
      <point x="-165" y="614" type="curve"/>
      <point x="-133" y="614" type="line"/>
      <point x="-154" y="669"/>
      <point x="-196" y="779"/>
      <point x="-217" y="822" type="curve" smooth="yes"/>
      <point x="-275" y="938"/>
      <point x="-338" y="1037"/>
      <point x="-435" y="1037" type="curve" smooth="yes"/>
    </contour>
    <contour>
      <point x="-158" y="634" type="move" name="_top"/>
    </contour>
  </outline>
</glyph>
<glyph name="uni092C094D" format="1">
  <advance width="388"/>
  <outline>
    <contour>
      <point x="166" y="461"/>
      <point x="66" y="402"/>
      <point x="66" y="280" type="curve" smooth="yes"/>
      <point x="66" y="167"/>
      <point x="163" y="113"/>
      <point x="253" y="113" type="curve" smooth="yes"/>
      <point x="335" y="113"/>
      <point x="431" y="175"/>
      <point x="489" y="248" type="curve"/>
      <point x="470" y="297" type="line"/>
      <point x="423" y="234"/>
      <point x="322" y="163"/>
      <point x="233" y="163" type="curve" smooth="yes"/>
      <point x="159" y="163"/>
      <point x="111" y="209"/>
      <point x="111" y="260" type="curve" smooth="yes"/>
      <point x="111" y="337"/>
      <point x="172" y="411"/>
      <point x="268" y="411" type="curve" smooth="yes"/>
      <point x="347" y="411"/>
      <point x="440" y="325"/>
      <point x="464" y="276" type="curve"/>
      <point x="489" y="248" type="line"/>
      <point x="489" y="303" type="line"/>
      <point x="453" y="361"/>
      <point x="382" y="461"/>
      <point x="248" y="461" type="curve" smooth="yes"/>
    </contour>
    <contour>
      <point x="166" y="412" type="line"/>
      <point x="329" y="165" type="line"/>
      <point x="361" y="182" type="line"/>
      <point x="201" y="425" type="line"/>
    </contour>
    <contour>
      <point x="-29" y="634" type="line"/>
      <point x="-29" y="624" type="line"/>
      <point x="-12" y="590" type="line"/>
      <point x="406" y="590" type="line"/>
      <point x="406" y="601" type="line"/>
      <point x="388" y="634" type="line"/>
    </contour>
  </outline>
</glyph>
<glyph name="uni092D094D" format="1">
  <advance width="463"/>
  <outline>
    <contour>
      <point x="92" y="650"/>
      <point x="49" y="609"/>
      <point x="49" y="551" type="curve" smooth="yes"/>
      <point x="49" y="462"/>
      <point x="127" y="414"/>
      <point x="237" y="377" type="curve"/>
      <point x="250" y="417" type="line"/>
      <point x="177" y="440"/>
      <point x="99" y="475"/>
      <point x="99" y="535" type="curve" smooth="yes"/>
      <point x="99" y="578"/>
      <point x="127" y="606"/>
      <point x="162" y="606" type="curve" smooth="yes"/>
      <point x="202" y="606"/>
      <point x="230" y="575"/>
      <point x="230" y="516" type="curve" smooth="yes"/>
      <point x="230" y="474"/>
      <point x="230" y="447"/>
      <point x="230" y="407" type="curve"/>
      <point x="230" y="390" type="line"/>
      <point x="230" y="251" type="line"/>
      <point x="542" y="251" type="line"/>
      <point x="542" y="295" type="line"/>
      <point x="148" y="295" type="line"/>
      <point x="140" y="219"/>
      <point x="185" y="172"/>
      <point x="229" y="172" type="curve"/>
      <point x="280" y="172"/>
      <point x="284" y="235"/>
      <point x="284" y="269" type="curve"/>
      <point x="284" y="503" type="line" smooth="yes"/>
      <point x="284" y="623"/>
      <point x="196" y="650"/>
      <point x="142" y="650" type="curve" smooth="yes"/>
    </contour>
    <contour>
      <point x="341" y="634" type="line"/>
      <point x="341" y="624" type="line"/>
      <point x="359" y="590" type="line"/>
      <point x="482" y="590" type="line"/>
      <point x="482" y="601" type="line"/>
      <point x="463" y="634" type="line"/>
    </contour>
  </outline>
</glyph>
<glyph name="uni0926094D0926" format="1">
  <advance width="571"/>
  <outline>
    <contour>
      <point x="-29" y="634" type="line"/>
      <point x="-29" y="624" type="line"/>
      <point x="-12" y="590" type="line"/>
      <point x="321" y="590" type="line"/>
      <point x="321" y="460" type="line"/>
      <point x="187" y="460" type="line" smooth="yes"/>
      <point x="96" y="460"/>
      <point x="56" y="427"/>
      <point x="56" y="362" type="curve" smooth="yes"/>
      <point x="56" y="308"/>
      <point x="97" y="275"/>
      <point x="175" y="244" type="curve"/>
      <point x="175" y="255" type="line"/>
      <point x="139" y="244"/>
      <point x="87" y="206"/>
      <point x="87" y="158" type="curve" smooth="yes"/>
      <point x="90" y="60"/>
      <point x="218" y="11"/>
      <point x="324" y="11" type="curve" smooth="yes"/>
      <point x="408" y="11"/>
      <point x="494" y="47"/>
      <point x="494" y="122" type="curve" smooth="yes"/>
      <point x="494" y="163"/>
      <point x="469" y="201"/>
      <point x="418" y="201" type="curve" smooth="yes"/>
      <point x="398" y="201"/>
      <point x="373" y="194"/>
      <point x="349" y="169" type="curve"/>
      <point x="392" y="68" type="line"/>
      <point x="372" y="63"/>
      <point x="348" y="61"/>
      <point x="324" y="61" type="curve" smooth="yes"/>
      <point x="265" y="61"/>
      <point x="145" y="78"/>
      <point x="143" y="147" type="curve" smooth="yes"/>
      <point x="142" y="188"/>
      <point x="190" y="229"/>
      <point x="275" y="229" type="curve"/>
      <point x="299" y="229"/>
      <point x="309" y="228"/>
      <point x="328" y="223" type="curve"/>
      <point x="331" y="232" type="line"/>
      <point x="324" y="248"/>
      <point x="313" y="270"/>
      <point x="313" y="270" type="curve"/>
      <point x="295" y="275"/>
      <point x="270" y="279"/>
      <point x="245" y="279" type="curve" smooth="yes"/>
      <point x="237" y="279"/>
      <point x="228" y="278"/>
      <point x="222" y="278" type="curve"/>
      <point x="186" y="278"/>
      <point x="106" y="307"/>
      <point x="106" y="354" type="curve" smooth="yes"/>
      <point x="106" y="392"/>
      <point x="132" y="416"/>
      <point x="200" y="416" type="curve" smooth="yes"/>
      <point x="375" y="416" type="line"/>
      <point x="375" y="590" type="line"/>
      <point x="571" y="590" type="line"/>
      <point x="571" y="601" type="line"/>
      <point x="552" y="634" type="line"/>
    </contour>
    <contour>
      <point x="406" y="37" type="line"/>
      <point x="482" y="-142" type="line"/>
      <point x="539" y="-114" type="line"/>
      <point x="443" y="55" type="line"/>
    </contour>
  </outline>
</glyph>
<glyph name="uni0926094D092F" format="1">
  <advance width="652"/>
  <outline>
    <contour>
      <point x="-29" y="634" type="line"/>
      <point x="-29" y="625" type="line"/>
      <point x="-12" y="590" type="line"/>
      <point x="482" y="590" type="line"/>
      <point x="482" y="170" type="line"/>
      <point x="440" y="170" type="line"/>
      <point x="482" y="154" type="line"/>
      <point x="482" y="13" type="line"/>
      <point x="524" y="-11" type="line"/>
      <point x="536" y="-11" type="line"/>
      <point x="536" y="590" type="line"/>
      <point x="652" y="590" type="line"/>
      <point x="652" y="601" type="line"/>
      <point x="633" y="634" type="line"/>
    </contour>
    <contour>
      <point x="272" y="618" type="line"/>
      <point x="272" y="496" type="line"/>
      <point x="162" y="496" type="line" smooth="yes"/>
      <point x="71" y="496"/>
      <point x="31" y="463"/>
      <point x="31" y="398" type="curve"/>
      <point x="31" y="344"/>
      <point x="71" y="314"/>
      <point x="136" y="286" type="curve"/>
      <point x="89" y="262"/>
      <point x="61" y="229"/>
      <point x="62" y="193" type="curve" smooth="yes"/>
      <point x="64" y="99"/>
      <point x="161" y="47"/>
      <point x="259" y="47" type="curve" smooth="yes"/>
      <point x="342" y="47"/>
      <point x="411" y="91"/>
      <point x="492" y="164" type="curve"/>
      <point x="491" y="230" type="line"/>
      <point x="408" y="148"/>
      <point x="332" y="97"/>
      <point x="239" y="97" type="curve" smooth="yes"/>
      <point x="182" y="97"/>
      <point x="111" y="115"/>
      <point x="107" y="170" type="curve" smooth="yes"/>
      <point x="104" y="208"/>
      <point x="146" y="264"/>
      <point x="250" y="265" type="curve" smooth="yes"/>
      <point x="274" y="265"/>
      <point x="284" y="264"/>
      <point x="303" y="259" type="curve"/>
      <point x="306" y="268" type="line"/>
      <point x="299" y="284"/>
      <point x="288" y="306"/>
      <point x="288" y="306" type="curve"/>
      <point x="270" y="311"/>
      <point x="245" y="315"/>
      <point x="220" y="315" type="curve" smooth="yes"/>
      <point x="212" y="315"/>
      <point x="203" y="314"/>
      <point x="197" y="314" type="curve" smooth="yes"/>
      <point x="161" y="314"/>
      <point x="81" y="343"/>
      <point x="81" y="390" type="curve"/>
      <point x="81" y="428"/>
      <point x="107" y="452"/>
      <point x="175" y="452" type="curve" smooth="yes"/>
      <point x="326" y="452" type="line"/>
      <point x="326" y="618" type="line"/>
    </contour>
  </outline>
</glyph>
<glyph name="uni09470930094D" format="1">
  <advance width="0"/>
  <outline>
    <contour>
      <point x="-219" y="952"/>
      <point x="-289" y="897"/>
      <point x="-289" y="819" type="curve" smooth="yes"/>
      <point x="-289" y="743"/>
      <point x="-241" y="684"/>
      <point x="-191" y="636" type="curve"/>
      <point x="-191" y="615" type="line"/>
      <point x="-131" y="634" type="line"/>
      <point x="-185" y="675"/>
      <point x="-239" y="741"/>
      <point x="-239" y="804" type="curve" smooth="yes"/>
      <point x="-239" y="868"/>
      <point x="-189" y="902"/>
      <point x="-134" y="902" type="curve" smooth="yes"/>
      <point x="-92" y="902"/>
      <point x="-58" y="882"/>
      <point x="-28" y="862" type="curve"/>
      <point x="-6" y="895" type="line"/>
      <point x="-44" y="928"/>
      <point x="-94" y="952"/>
      <point x="-144" y="952" type="curve" smooth="yes"/>
    </contour>
    <contour>
      <point x="-509" y="1010"/>
      <point x="-533" y="990"/>
      <point x="-533" y="956" type="curve" smooth="yes"/>
      <point x="-533" y="929"/>
      <point x="-517" y="905"/>
      <point x="-503" y="894" type="curve"/>
      <point x="-389" y="928" type="line"/>
      <point x="-372" y="917"/>
      <point x="-329" y="848"/>
      <point x="-276" y="748" type="curve" smooth="yes"/>
      <point x="-265" y="727"/>
      <point x="-236" y="667"/>
      <point x="-221" y="633" type="curve"/>
      <point x="-171" y="633" type="line"/>
      <point x="-190" y="676"/>
      <point x="-233" y="760"/>
      <point x="-251" y="795" type="curve" smooth="yes"/>
      <point x="-313" y="913"/>
      <point x="-374" y="1010"/>
      <point x="-471" y="1010" type="curve" smooth="yes"/>
    </contour>
    <contour>
      <point x="-163" y="634" type="move" name="_top"/>
    </contour>
  </outline>
</glyph>
<glyph name="uni0939094D" format="1">
  <advance width="483"/>
  <outline>
    <contour>
      <point x="158" y="319"/>
      <point x="104" y="239"/>
      <point x="104" y="169" type="curve" smooth="yes"/>
      <point x="104" y="42"/>
      <point x="233" y="-44"/>
      <point x="357" y="-110" type="curve"/>
      <point x="372" y="-87" type="line"/>
      <point x="231" y="-2"/>
      <point x="154" y="62"/>
      <point x="154" y="153" type="curve" smooth="yes"/>
      <point x="154" y="231"/>
      <point x="226" y="274"/>
      <point x="285" y="274" type="curve"/>
      <point x="263" y="319" type="line"/>
    </contour>
    <contour>
      <point x="263" y="319" type="line"/>
      <point x="263" y="274" type="line"/>
      <point x="575" y="274" type="line"/>
      <point x="575" y="319" type="line"/>
    </contour>
    <contour>
      <point x="-29" y="634" type="line"/>
      <point x="-29" y="624" type="line"/>
      <point x="-12" y="590" type="line"/>
      <point x="355" y="590" type="line"/>
      <point x="355" y="472" type="line"/>
      <point x="155" y="472" type="line" smooth="yes"/>
      <point x="100" y="472"/>
      <point x="66" y="441"/>
      <point x="66" y="392" type="curve" smooth="yes"/>
      <point x="66" y="349"/>
      <point x="103" y="283"/>
      <point x="142" y="245" type="curve"/>
      <point x="170" y="272" type="line"/>
      <point x="130" y="307"/>
      <point x="116" y="344"/>
      <point x="116" y="367" type="curve" smooth="yes"/>
      <point x="116" y="391"/>
      <point x="129" y="428"/>
      <point x="176" y="428" type="curve" smooth="yes"/>
      <point x="409" y="428" type="line"/>
      <point x="409" y="590" type="line"/>
      <point x="502" y="590" type="line"/>
      <point x="502" y="601" type="line"/>
      <point x="483" y="634" type="line"/>
    </contour>
  </outline>
</glyph>
<glyph name="uni091C094D" format="1">
  <advance width="459"/>
  <outline>
    <contour>
      <point x="-29" y="634" type="line"/>
      <point x="-29" y="624" type="line"/>
      <point x="-12" y="590" type="line"/>
      <point x="478" y="590" type="line"/>
      <point x="478" y="601" type="line"/>
      <point x="459" y="634" type="line"/>
    </contour>
    <contour>
      <point x="28" y="369" type="line"/>
      <point x="75" y="264"/>
      <point x="154" y="110"/>
      <point x="300" y="110" type="curve" smooth="yes"/>
      <point x="359" y="110"/>
      <point x="397" y="150"/>
      <point x="397" y="198" type="curve" smooth="yes"/>
      <point x="397" y="280"/>
      <point x="336" y="335"/>
      <point x="264" y="385" type="curve"/>
      <point x="250" y="352" type="line"/>
      <point x="308" y="319"/>
      <point x="347" y="270"/>
      <point x="347" y="218" type="curve" smooth="yes"/>
      <point x="347" y="183"/>
      <point x="331" y="160"/>
      <point x="289" y="160" type="curve" smooth="yes"/>
      <point x="182" y="160"/>
      <point x="93" y="306"/>
      <point x="58" y="388" type="curve"/>
    </contour>
    <contour>
      <point x="264" y="385" type="line"/>
      <point x="297" y="342" type="line"/>
      <point x="567" y="342" type="line"/>
      <point x="587" y="385" type="line"/>
    </contour>
  </outline>
</glyph>
<glyph name="uni091C094D091E" format="1">
  <advance width="658"/>
  <outline>
    <contour>
      <point x="93" y="460" type="line"/>
      <point x="88" y="437" type="line"/>
      <point x="130" y="411"/>
      <point x="304" y="306"/>
      <point x="304" y="205" type="curve" smooth="yes"/>
      <point x="304" y="125"/>
      <point x="212" y="97"/>
      <point x="136" y="97" type="curve"/>
      <point x="148" y="171" type="line"/>
      <point x="140" y="174"/>
      <point x="130" y="175"/>
      <point x="121" y="175" type="curve" smooth="yes"/>
      <point x="88" y="175"/>
      <point x="44" y="154"/>
      <point x="44" y="112" type="curve" smooth="yes"/>
      <point x="44" y="67"/>
      <point x="114" y="53"/>
      <point x="187" y="53" type="curve" smooth="yes"/>
      <point x="279" y="53"/>
      <point x="354" y="119"/>
      <point x="354" y="191" type="curve"/>
      <point x="354" y="308"/>
      <point x="233" y="384"/>
      <point x="193" y="414" type="curve"/>
      <point x="181" y="400" type="line"/>
      <point x="193" y="393" type="line"/>
      <point x="193" y="416" type="line"/>
      <point x="528" y="416" type="line"/>
      <point x="528" y="460" type="line"/>
    </contour>
    <contour>
      <point x="249" y="-121" type="line" smooth="yes"/>
      <point x="293" y="-88" type="line" smooth="yes"/>
      <point x="123" y="70" type="line"/>
      <point x="79" y="73" type="line"/>
    </contour>
    <contour>
      <point x="488" y="607" type="line"/>
      <point x="487" y="11" type="line"/>
      <point x="530" y="-11" type="line"/>
      <point x="542" y="-11" type="line"/>
      <point x="542" y="607" type="line"/>
    </contour>
    <contour>
      <point x="-29" y="634" type="line"/>
      <point x="-29" y="624" type="line"/>
      <point x="-12" y="590" type="line"/>
      <point x="658" y="590" type="line"/>
      <point x="658" y="601" type="line"/>
      <point x="639" y="634" type="line"/>
    </contour>
  </outline>
</glyph>
<glyph name="uni091D094D" format="1">
  <advance width="498"/>
  <outline>
    <contour>
      <point x="-29" y="634" type="line"/>
      <point x="-29" y="624" type="line"/>
      <point x="-12" y="590" type="line"/>
      <point x="316" y="590" type="line"/>
      <point x="316" y="481" type="line"/>
      <point x="165" y="481" type="line" smooth="yes"/>
      <point x="109" y="481"/>
      <point x="76" y="443"/>
      <point x="76" y="383" type="curve" smooth="yes"/>
      <point x="76" y="329"/>
      <point x="143" y="245"/>
      <point x="197" y="245" type="curve" smooth="yes"/>
      <point x="245" y="245"/>
      <point x="304" y="273"/>
      <point x="337" y="273" type="curve"/>
      <point x="349" y="267"/>
      <point x="372" y="241"/>
      <point x="372" y="196" type="curve" smooth="yes"/>
      <point x="372" y="115"/>
      <point x="263" y="87"/>
      <point x="158" y="87" type="curve"/>
      <point x="170" y="161" type="line"/>
      <point x="162" y="164"/>
      <point x="152" y="165"/>
      <point x="143" y="165" type="curve" smooth="yes"/>
      <point x="110" y="165"/>
      <point x="66" y="144"/>
      <point x="66" y="102" type="curve" smooth="yes"/>
      <point x="66" y="57"/>
      <point x="136" y="43"/>
      <point x="209" y="43" type="curve" smooth="yes"/>
      <point x="320" y="43"/>
      <point x="422" y="104"/>
      <point x="422" y="171" type="curve" smooth="yes"/>
      <point x="422" y="234"/>
      <point x="381" y="317"/>
      <point x="321" y="317" type="curve" smooth="yes"/>
      <point x="286" y="317"/>
      <point x="228" y="289"/>
      <point x="180" y="289" type="curve" smooth="yes"/>
      <point x="160" y="289"/>
      <point x="126" y="324"/>
      <point x="126" y="362" type="curve" smooth="yes"/>
      <point x="126" y="397"/>
      <point x="139" y="437"/>
      <point x="186" y="437" type="curve" smooth="yes"/>
      <point x="370" y="437" type="line"/>
      <point x="370" y="590" type="line"/>
      <point x="517" y="590" type="line"/>
      <point x="517" y="601" type="line"/>
      <point x="498" y="634" type="line"/>
    </contour>
    <contour>
      <point x="277" y="-131" type="line" smooth="yes"/>
      <point x="321" y="-98" type="line" smooth="yes"/>
      <point x="151" y="60" type="line"/>
      <point x="107" y="63" type="line"/>
    </contour>
    <contour>
      <point x="548" y="297"/>
      <point x="505" y="285"/>
      <point x="472" y="285" type="curve" smooth="yes"/>
      <point x="426" y="285"/>
      <point x="381" y="298"/>
      <point x="353" y="307" type="curve"/>
      <point x="386" y="265" type="line"/>
      <point x="398" y="265" type="line"/>
      <point x="417" y="257"/>
      <point x="456" y="235"/>
      <point x="505" y="235" type="curve" smooth="yes"/>
      <point x="543" y="235"/>
      <point x="576" y="254"/>
      <point x="594" y="265" type="curve"/>
      <point x="575" y="316" type="line"/>
    </contour>
  </outline>
</glyph>
<glyph name="uni0915094D0915" format="1">
  <advance width="818"/>
  <outline>
    <contour>
      <point x="117" y="517"/>
      <point x="56" y="452"/>
      <point x="56" y="376" type="curve"/>
      <point x="56" y="274"/>
      <point x="135" y="225"/>
      <point x="218" y="225" type="curve"/>
      <point x="313" y="225"/>
      <point x="368" y="281"/>
      <point x="418" y="316" type="curve" smooth="yes"/>
      <point x="447" y="343" type="line" smooth="yes"/>
      <point x="516" y="408"/>
      <point x="571" y="443"/>
      <point x="625" y="443" type="curve"/>
      <point x="668" y="443"/>
      <point x="707" y="423"/>
      <point x="707" y="376" type="curve"/>
      <point x="707" y="341"/>
      <point x="692" y="315"/>
      <point x="683" y="303" type="curve"/>
      <point x="726" y="259" type="line"/>
      <point x="738" y="279"/>
      <point x="752" y="314"/>
      <point x="752" y="348" type="curve"/>
      <point x="752" y="436"/>
      <point x="691" y="493"/>
      <point x="607" y="493" type="curve"/>
      <point x="546" y="493"/>
      <point x="479" y="441"/>
      <point x="441" y="404" type="curve"/>
      <point x="413" y="378" type="line"/>
      <point x="355" y="327"/>
      <point x="282" y="275"/>
      <point x="198" y="275" type="curve"/>
      <point x="143" y="275"/>
      <point x="101" y="307"/>
      <point x="101" y="355" type="curve"/>
      <point x="101" y="422"/>
      <point x="164" y="466"/>
      <point x="231" y="467" type="curve"/>
      <point x="298" y="467"/>
      <point x="365" y="421"/>
      <point x="408" y="349" type="curve"/>
      <point x="407" y="414" type="line"/>
      <point x="371" y="465"/>
      <point x="297" y="517"/>
      <point x="211" y="517" type="curve"/>
    </contour>
    <contour>
      <point x="542" y="286"/>
      <point x="477" y="240"/>
      <point x="441" y="207" type="curve"/>
      <point x="413" y="191" type="line"/>
      <point x="358" y="145"/>
      <point x="298" y="98"/>
      <point x="208" y="98" type="curve"/>
      <point x="159" y="98"/>
      <point x="121" y="122"/>
      <point x="121" y="158" type="curve"/>
      <point x="121" y="199"/>
      <point x="152" y="229"/>
      <point x="194" y="243" type="curve"/>
      <point x="132" y="277" type="line"/>
      <point x="96" y="254"/>
      <point x="76" y="219"/>
      <point x="76" y="179" type="curve"/>
      <point x="76" y="91"/>
      <point x="150" y="48"/>
      <point x="228" y="48" type="curve"/>
      <point x="318" y="48"/>
      <point x="371" y="98"/>
      <point x="418" y="129" type="curve" smooth="yes"/>
      <point x="447" y="146" type="line" smooth="yes"/>
      <point x="512" y="205"/>
      <point x="564" y="236"/>
      <point x="615" y="236" type="curve"/>
      <point x="658" y="236"/>
      <point x="697" y="204"/>
      <point x="697" y="161" type="curve"/>
      <point x="697" y="106"/>
      <point x="658" y="55"/>
      <point x="643" y="36" type="curve" smooth="yes"/>
      <point x="686" y="-8" type="line" smooth="yes"/>
      <point x="706" y="22"/>
      <point x="742" y="84"/>
      <point x="742" y="135" type="curve"/>
      <point x="742" y="227"/>
      <point x="681" y="286"/>
      <point x="599" y="286" type="curve"/>
    </contour>
    <contour>
      <point x="402" y="610" type="line"/>
      <point x="401" y="424" type="line"/>
      <point x="381" y="424" type="line"/>
      <point x="401" y="392" type="line"/>
      <point x="401" y="348" type="line"/>
      <point x="371" y="316" type="line"/>
      <point x="401" y="302" type="line"/>
      <point x="400" y="144" type="line"/>
      <point x="378" y="129" type="line"/>
      <point x="400" y="115" type="line"/>
      <point x="399" y="13" type="line"/>
      <point x="443" y="-11" type="line"/>
      <point x="455" y="-11" type="line"/>
      <point x="455" y="610" type="line"/>
    </contour>
    <contour>
      <point x="-29" y="634" type="line"/>
      <point x="-29" y="624" type="line"/>
      <point x="-12" y="590" type="line"/>
      <point x="818" y="590" type="line"/>
      <point x="818" y="601" type="line"/>
      <point x="798" y="634" type="line"/>
    </contour>
  </outline>
</glyph>
<glyph name="uni0915094D0937" format="1">
  <advance width="752"/>
  <outline>
    <contour>
      <point x="155" y="652"/>
      <point x="76" y="604"/>
      <point x="76" y="514" type="curve" smooth="yes"/>
      <point x="76" y="458"/>
      <point x="136" y="390"/>
      <point x="222" y="342" type="curve"/>
      <point x="261" y="364" type="line"/>
      <point x="199" y="393"/>
      <point x="123" y="451"/>
      <point x="124" y="501" type="curve" smooth="yes"/>
      <point x="125" y="570"/>
      <point x="192" y="602"/>
      <point x="251" y="602" type="curve" smooth="yes"/>
      <point x="286" y="602"/>
      <point x="339" y="556"/>
      <point x="339" y="514" type="curve" smooth="yes"/>
      <point x="339" y="340"/>
      <point x="56" y="339"/>
      <point x="55" y="211" type="curve" smooth="yes"/>
      <point x="54" y="87"/>
      <point x="170" y="16"/>
      <point x="256" y="16" type="curve" smooth="yes"/>
      <point x="324" y="16"/>
      <point x="406" y="47"/>
      <point x="406" y="121" type="curve" smooth="yes"/>
      <point x="406" y="163"/>
      <point x="384" y="194"/>
      <point x="335" y="194" type="curve" smooth="yes"/>
      <point x="317" y="194"/>
      <point x="302" y="190"/>
      <point x="289" y="179" type="curve"/>
      <point x="315" y="61" type="line"/>
      <point x="313" y="87" type="line"/>
      <point x="285" y="75"/>
      <point x="249" y="66"/>
      <point x="220" y="66" type="curve" smooth="yes"/>
      <point x="152" y="66"/>
      <point x="104" y="127"/>
      <point x="105" y="188" type="curve" smooth="yes"/>
      <point x="107" y="311"/>
      <point x="389" y="322"/>
      <point x="389" y="498" type="curve" smooth="yes"/>
      <point x="389" y="563"/>
      <point x="297" y="652"/>
      <point x="231" y="652" type="curve" smooth="yes"/>
    </contour>
    <contour>
      <point x="330" y="48" type="line"/>
      <point x="407" y="-129" type="line"/>
      <point x="456" y="-104" type="line"/>
      <point x="363" y="58" type="line"/>
    </contour>
    <contour>
      <point x="545" y="333"/>
      <point x="497" y="318"/>
      <point x="449" y="318" type="curve" smooth="yes"/>
      <point x="381" y="318"/>
      <point x="318" y="338"/>
      <point x="272" y="359" type="curve"/>
      <point x="237" y="334" type="line"/>
      <point x="284" y="309"/>
      <point x="380" y="268"/>
      <point x="475" y="268" type="curve" smooth="yes"/>
      <point x="505" y="268"/>
      <point x="547" y="274"/>
      <point x="598" y="303" type="curve"/>
      <point x="590" y="358" type="line"/>
    </contour>
    <contour>
      <point x="582" y="615" type="line"/>
      <point x="582" y="335" type="line"/>
      <point x="537" y="294" type="line"/>
      <point x="582" y="294" type="line"/>
      <point x="582" y="13" type="line"/>
      <point x="623" y="-11" type="line"/>
      <point x="636" y="-11" type="line"/>
      <point x="636" y="615" type="line"/>
    </contour>
    <contour>
      <point x="421" y="634" type="line"/>
      <point x="421" y="624" type="line"/>
      <point x="439" y="590" type="line"/>
      <point x="752" y="590" type="line"/>
      <point x="752" y="601" type="line"/>
      <point x="734" y="634" type="line"/>
    </contour>
    <contour>
      <point x="609" y="634" type="move" name="top"/>
    </contour>
    <contour>
      <point x="609" y="0" type="move" name="bottom"/>
    </contour>
  </outline>
</glyph>
<glyph name="uni0915094D0924" format="1">
  <advance width="903"/>
  <outline>
    <contour>
      <point x="634" y="419"/>
      <point x="565" y="361"/>
      <point x="527" y="320" type="curve"/>
      <point x="533" y="259" type="line"/>
      <point x="602" y="330"/>
      <point x="657" y="369"/>
      <point x="711" y="369" type="curve"/>
      <point x="759" y="369"/>
      <point x="803" y="325"/>
      <point x="803" y="264" type="curve"/>
      <point x="803" y="193"/>
      <point x="750" y="122"/>
      <point x="729" y="99" type="curve" smooth="yes"/>
      <point x="772" y="55" type="line" smooth="yes"/>
      <point x="798" y="93"/>
      <point x="848" y="171"/>
      <point x="848" y="238" type="curve"/>
      <point x="848" y="348"/>
      <point x="783" y="419"/>
      <point x="695" y="419" type="curve"/>
    </contour>
    <contour>
      <point x="145" y="359"/>
      <point x="131" y="323"/>
      <point x="132" y="280" type="curve" smooth="yes"/>
      <point x="134" y="172"/>
      <point x="229" y="71"/>
      <point x="310" y="1" type="curve"/>
      <point x="329" y="21" type="line"/>
      <point x="241" y="99"/>
      <point x="184" y="183"/>
      <point x="182" y="256" type="curve" smooth="yes"/>
      <point x="180" y="326"/>
      <point x="224" y="360"/>
      <point x="318" y="360" type="curve"/>
      <point x="184" y="382" type="line"/>
    </contour>
    <contour>
      <point x="22" y="404" type="line"/>
      <point x="22" y="394" type="line"/>
      <point x="39" y="360" type="line"/>
      <point x="511" y="360" type="line"/>
      <point x="511" y="404" type="line"/>
    </contour>
    <contour>
      <point x="487" y="610" type="line"/>
      <point x="486" y="13" type="line"/>
      <point x="529" y="-11" type="line"/>
      <point x="541" y="-11" type="line"/>
      <point x="541" y="610" type="line"/>
    </contour>
    <contour>
      <point x="-29" y="634" type="line"/>
      <point x="-29" y="624" type="line"/>
      <point x="-12" y="590" type="line"/>
      <point x="904" y="590" type="line"/>
      <point x="904" y="601" type="line"/>
      <point x="884" y="634" type="line"/>
    </contour>
  </outline>
</glyph>
<glyph name="uni0915094D0935" format="1">
  <advance width="818"/>
  <outline>
    <contour>
      <point x="413" y="191" type="line"/>
      <point x="358" y="145"/>
      <point x="298" y="98"/>
      <point x="208" y="98" type="curve"/>
      <point x="159" y="98"/>
      <point x="121" y="122"/>
      <point x="121" y="158" type="curve"/>
      <point x="121" y="199"/>
      <point x="152" y="229"/>
      <point x="194" y="243" type="curve"/>
      <point x="132" y="277" type="line"/>
      <point x="96" y="254"/>
      <point x="76" y="219"/>
      <point x="76" y="179" type="curve"/>
      <point x="76" y="91"/>
      <point x="150" y="48"/>
      <point x="228" y="48" type="curve"/>
      <point x="318" y="48"/>
      <point x="371" y="98"/>
      <point x="418" y="129" type="curve"/>
    </contour>
    <contour>
      <point x="402" y="610" type="line"/>
      <point x="401" y="424" type="line"/>
      <point x="381" y="424" type="line"/>
      <point x="401" y="392" type="line"/>
      <point x="401" y="348" type="line"/>
      <point x="371" y="316" type="line"/>
      <point x="401" y="302" type="line"/>
      <point x="400" y="144" type="line"/>
      <point x="378" y="129" type="line"/>
      <point x="400" y="115" type="line"/>
      <point x="399" y="13" type="line"/>
      <point x="443" y="-11" type="line"/>
      <point x="455" y="-11" type="line"/>
      <point x="455" y="610" type="line"/>
    </contour>
    <contour>
      <point x="-29" y="634" type="line"/>
      <point x="-29" y="624" type="line"/>
      <point x="-12" y="590" type="line"/>
      <point x="818" y="590" type="line"/>
      <point x="818" y="601" type="line"/>
      <point x="798" y="634" type="line"/>
    </contour>
    <contour>
      <point x="547" y="493"/>
      <point x="479" y="441"/>
      <point x="441" y="404" type="curve"/>
      <point x="413" y="378" type="line"/>
      <point x="355" y="327"/>
      <point x="282" y="275"/>
      <point x="198" y="275" type="curve"/>
      <point x="143" y="275"/>
      <point x="101" y="307"/>
      <point x="101" y="355" type="curve"/>
      <point x="101" y="422"/>
      <point x="164" y="466"/>
      <point x="231" y="467" type="curve"/>
      <point x="298" y="467"/>
      <point x="365" y="421"/>
      <point x="408" y="349" type="curve"/>
      <point x="407" y="414" type="line"/>
      <point x="371" y="465"/>
      <point x="297" y="517"/>
      <point x="211" y="517" type="curve"/>
      <point x="117" y="517"/>
      <point x="56" y="452"/>
      <point x="56" y="376" type="curve"/>
      <point x="56" y="274"/>
      <point x="135" y="225"/>
      <point x="218" y="225" type="curve"/>
      <point x="313" y="225"/>
      <point x="368" y="281"/>
      <point x="418" y="316" type="curve" smooth="yes"/>
      <point x="447" y="343" type="line" smooth="yes"/>
      <point x="516" y="408"/>
      <point x="571" y="443"/>
      <point x="625" y="443" type="curve"/>
      <point x="673" y="443"/>
      <point x="717" y="399"/>
      <point x="717" y="338" type="curve"/>
      <point x="717" y="267"/>
      <point x="664" y="196"/>
      <point x="643" y="173" type="curve" smooth="yes"/>
      <point x="686" y="129" type="line" smooth="yes"/>
      <point x="712" y="167"/>
      <point x="762" y="245"/>
      <point x="762" y="312" type="curve"/>
      <point x="762" y="422"/>
      <point x="698" y="493"/>
      <point x="608" y="493" type="curve"/>
    </contour>
  </outline>
</glyph>
<glyph name="uni0916094D" format="1">
  <advance width="549"/>
  <outline>
    <contour>
      <point x="157" y="601" type="line"/>
      <point x="169" y="557"/>
      <point x="176" y="484"/>
      <point x="176" y="440" type="curve" smooth="yes"/>
      <point x="176" y="399"/>
      <point x="167" y="366"/>
      <point x="144" y="330" type="curve"/>
      <point x="96" y="372" type="line"/>
      <point x="80" y="366"/>
      <point x="57" y="346"/>
      <point x="57" y="323" type="curve" smooth="yes"/>
      <point x="57" y="286"/>
      <point x="72" y="250"/>
      <point x="122" y="193" type="curve" smooth="yes"/>
      <point x="193" y="112"/>
      <point x="282" y="29"/>
      <point x="387" y="29" type="curve" smooth="yes"/>
      <point x="479" y="29"/>
      <point x="573" y="70"/>
      <point x="622" y="99" type="curve"/>
      <point x="601" y="143" type="line"/>
      <point x="541" y="106"/>
      <point x="471" y="79"/>
      <point x="387" y="79" type="curve" smooth="yes"/>
      <point x="274" y="79"/>
      <point x="171" y="188"/>
      <point x="133" y="236" type="curve"/>
      <point x="182" y="278"/>
      <point x="226" y="321"/>
      <point x="226" y="412" type="curve" smooth="yes"/>
      <point x="226" y="450"/>
      <point x="220" y="535"/>
      <point x="207" y="601" type="curve"/>
    </contour>
    <contour>
      <point x="527" y="431"/>
      <point x="587" y="390"/>
      <point x="587" y="344" type="curve" smooth="yes"/>
      <point x="587" y="287"/>
      <point x="503" y="237"/>
      <point x="426" y="237" type="curve" smooth="yes"/>
      <point x="363" y="237"/>
      <point x="336" y="271"/>
      <point x="336" y="308" type="curve" smooth="yes"/>
      <point x="336" y="375"/>
      <point x="377" y="433"/>
      <point x="463" y="432" type="curve" smooth="yes"/>
    </contour>
    <contour>
      <point x="351" y="482"/>
      <point x="290" y="421"/>
      <point x="290" y="328" type="curve" smooth="yes"/>
      <point x="290" y="258"/>
      <point x="340" y="187"/>
      <point x="445" y="187" type="curve" smooth="yes"/>
      <point x="538" y="187"/>
      <point x="633" y="270"/>
      <point x="633" y="320" type="curve" smooth="yes"/>
      <point x="633" y="409"/>
      <point x="558" y="482"/>
      <point x="444" y="482" type="curve" smooth="yes"/>
    </contour>
    <contour>
      <point x="-44" y="634" type="line"/>
      <point x="-44" y="624" type="line"/>
      <point x="-26" y="590" type="line"/>
      <point x="567" y="590" type="line"/>
      <point x="567" y="601" type="line"/>
      <point x="549" y="634" type="line"/>
    </contour>
  </outline>
</glyph>
<glyph name="uni0932094D" format="1">
  <advance width="504"/>
  <outline>
    <contour>
      <point x="116" y="442"/>
      <point x="53" y="381"/>
      <point x="53" y="301" type="curve" smooth="yes"/>
      <point x="53" y="140"/>
      <point x="170" y="24"/>
      <point x="257" y="-52" type="curve"/>
      <point x="276" y="-32" type="line"/>
      <point x="167" y="63"/>
      <point x="103" y="162"/>
      <point x="103" y="267" type="curve" smooth="yes"/>
      <point x="103" y="341"/>
      <point x="146" y="392"/>
      <point x="211" y="392" type="curve" smooth="yes"/>
      <point x="265" y="392"/>
      <point x="315" y="345"/>
      <point x="346" y="304" type="curve"/>
      <point x="370" y="334" type="line"/>
      <point x="332" y="382"/>
      <point x="268" y="442"/>
      <point x="188" y="442" type="curve" smooth="yes"/>
    </contour>
    <contour>
      <point x="363" y="424"/>
      <point x="302" y="311"/>
      <point x="279" y="212" type="curve"/>
      <point x="338" y="178" type="line"/>
      <point x="356" y="258"/>
      <point x="402" y="380"/>
      <point x="473" y="380" type="curve" smooth="yes"/>
      <point x="516" y="380"/>
      <point x="562" y="343"/>
      <point x="592" y="302" type="curve"/>
      <point x="611" y="338" type="line"/>
      <point x="572" y="386"/>
      <point x="516" y="424"/>
      <point x="454" y="424" type="curve" smooth="yes"/>
    </contour>
    <contour>
      <point x="-29" y="634" type="line"/>
      <point x="-29" y="624" type="line"/>
      <point x="-12" y="590" type="line"/>
      <point x="523" y="590" type="line"/>
      <point x="523" y="601" type="line"/>
      <point x="504" y="634" type="line"/>
    </contour>
  </outline>
</glyph>
<glyph name="uni092E094D" format="1">
  <advance width="368"/>
  <outline>
    <contour>
      <point x="-29" y="634" type="line"/>
      <point x="-29" y="624" type="line"/>
      <point x="-12" y="590" type="line"/>
      <point x="124" y="590" type="line"/>
      <point x="124" y="268" type="line"/>
      <point x="462" y="268" type="line"/>
      <point x="462" y="312" type="line"/>
      <point x="178" y="312" type="line"/>
      <point x="178" y="590" type="line"/>
      <point x="388" y="590" type="line"/>
      <point x="388" y="601" type="line"/>
      <point x="368" y="634" type="line"/>
    </contour>
    <contour>
      <point x="61" y="334"/>
      <point x="51" y="326"/>
      <point x="51" y="308" type="curve" smooth="yes"/>
      <point x="51" y="286"/>
      <point x="83" y="249"/>
      <point x="105" y="223" type="curve"/>
      <point x="120" y="204"/>
      <point x="153" y="175"/>
      <point x="171" y="175" type="curve" smooth="yes"/>
      <point x="185" y="175"/>
      <point x="192" y="183"/>
      <point x="192" y="196" type="curve" smooth="yes"/>
      <point x="192" y="217"/>
      <point x="188" y="264"/>
      <point x="186" y="297" type="curve"/>
      <point x="138" y="329" type="line"/>
      <point x="123" y="331"/>
      <point x="92" y="334"/>
      <point x="82" y="334" type="curve" smooth="yes"/>
    </contour>
  </outline>
</glyph>
<glyph name="uni0919094D0915" format="1">
  <advance width="664"/>
  <outline>
    <contour>
      <point x="-29" y="634" type="line"/>
      <point x="-29" y="624" type="line"/>
      <point x="-12" y="590" type="line"/>
      <point x="364" y="590" type="line"/>
      <point x="364" y="484" type="line"/>
      <point x="224" y="484" type="line" smooth="yes"/>
      <point x="165" y="484"/>
      <point x="122" y="450"/>
      <point x="122" y="400" type="curve" smooth="yes"/>
      <point x="122" y="350"/>
      <point x="187" y="293"/>
      <point x="253" y="293" type="curve" smooth="yes"/>
      <point x="298" y="293"/>
      <point x="346" y="323"/>
      <point x="401" y="323" type="curve"/>
      <point x="415" y="319"/>
      <point x="442" y="301"/>
      <point x="442" y="270" type="curve" smooth="yes"/>
      <point x="442" y="220"/>
      <point x="391" y="196"/>
      <point x="334" y="194" type="curve" smooth="yes"/>
      <point x="260" y="195"/>
      <point x="167" y="225"/>
      <point x="62" y="320" type="curve"/>
      <point x="35" y="294" type="line"/>
      <point x="156" y="185"/>
      <point x="261" y="150"/>
      <point x="359" y="149" type="curve" smooth="yes"/>
      <point x="434" y="151"/>
      <point x="492" y="196"/>
      <point x="492" y="254" type="curve" smooth="yes"/>
      <point x="492" y="305"/>
      <point x="442" y="367"/>
      <point x="384" y="367" type="curve" smooth="yes"/>
      <point x="338" y="367"/>
      <point x="267" y="337"/>
      <point x="227" y="337" type="curve" smooth="yes"/>
      <point x="206" y="337"/>
      <point x="172" y="355"/>
      <point x="172" y="384" type="curve" smooth="yes"/>
      <point x="172" y="415"/>
      <point x="191" y="440"/>
      <point x="247" y="440" type="curve" smooth="yes"/>
      <point x="418" y="440" type="line"/>
      <point x="418" y="590" type="line"/>
      <point x="664" y="590" type="line"/>
      <point x="664" y="601" type="line"/>
      <point x="645" y="634" type="line"/>
    </contour>
    <contour>
      <point x="588" y="334" type="line"/>
      <point x="651" y="397" type="line"/>
      <point x="588" y="460" type="line"/>
      <point x="525" y="397" type="line"/>
    </contour>
    <contour>
      <point x="316" y="171" type="line"/>
      <point x="315" y="-113" type="line"/>
      <point x="317" y="-114" type="line"/>
      <point x="315" y="-268" type="line"/>
      <point x="358" y="-289" type="line"/>
      <point x="370" y="-289" type="line"/>
      <point x="370" y="171" type="line"/>
    </contour>
    <contour>
      <point x="107" y="81"/>
      <point x="58" y="27"/>
      <point x="58" y="-34" type="curve"/>
      <point x="58" y="-121"/>
      <point x="121" y="-164"/>
      <point x="185" y="-165" type="curve"/>
      <point x="252" y="-164"/>
      <point x="300" y="-127"/>
      <point x="330" y="-102" type="curve"/>
      <point x="351" y="-81" type="line"/>
      <point x="401" y="-39"/>
      <point x="446" y="13"/>
      <point x="497" y="13" type="curve"/>
      <point x="522" y="13"/>
      <point x="549" y="-8"/>
      <point x="549" y="-42" type="curve"/>
      <point x="549" y="-90"/>
      <point x="506" y="-134"/>
      <point x="485" y="-157" type="curve" smooth="yes"/>
      <point x="528" y="-201" type="line"/>
      <point x="554" y="-175"/>
      <point x="594" y="-116"/>
      <point x="594" y="-68" type="curve"/>
      <point x="594" y="12"/>
      <point x="540" y="63"/>
      <point x="481" y="63" type="curve"/>
      <point x="436" y="63"/>
      <point x="383" y="10"/>
      <point x="353" y="-18" type="curve"/>
      <point x="325" y="-43" type="line"/>
      <point x="282" y="-80"/>
      <point x="225" y="-114"/>
      <point x="165" y="-115" type="curve"/>
      <point x="132" y="-113"/>
      <point x="103" y="-89"/>
      <point x="103" y="-55" type="curve"/>
      <point x="103" y="-5"/>
      <point x="151" y="30"/>
      <point x="198" y="31" type="curve"/>
      <point x="251" y="32"/>
      <point x="297" y="-18"/>
      <point x="330" y="-71" type="curve"/>
      <point x="329" y="-14" type="line"/>
      <point x="300" y="24"/>
      <point x="247" y="81"/>
      <point x="178" y="81" type="curve"/>
    </contour>
  </outline>
</glyph>
<glyph name="uni091E094D" format="1">
  <advance width="430"/>
  <outline>
    <contour>
      <point x="223" y="438"/>
      <point x="186" y="417"/>
      <point x="152" y="393" type="curve"/>
      <point x="185" y="352" type="line"/>
      <point x="219" y="372"/>
      <point x="257" y="388"/>
      <point x="292" y="388" type="curve" smooth="yes"/>
      <point x="328" y="388"/>
      <point x="373" y="348"/>
      <point x="373" y="301" type="curve" smooth="yes"/>
      <point x="373" y="253"/>
      <point x="330" y="196"/>
      <point x="247" y="195" type="curve" smooth="yes"/>
      <point x="165" y="194"/>
      <point x="105" y="252"/>
      <point x="30" y="350" type="curve"/>
      <point x="0" y="331" type="line"/>
      <point x="64" y="240"/>
      <point x="146" y="145"/>
      <point x="266" y="145" type="curve" smooth="yes"/>
      <point x="335" y="145"/>
      <point x="413" y="190"/>
      <point x="413" y="278" type="curve" smooth="yes"/>
      <point x="413" y="394"/>
      <point x="302" y="438"/>
      <point x="248" y="438" type="curve" smooth="yes"/>
    </contour>
    <contour>
      <point x="470" y="277"/>
      <point x="437" y="269"/>
      <point x="400" y="278" type="curve"/>
      <point x="365" y="235" type="line"/>
      <point x="408" y="235" type="line"/>
      <point x="421" y="231"/>
      <point x="445" y="224"/>
      <point x="465" y="224" type="curve" smooth="yes"/>
      <point x="485" y="224"/>
      <point x="499" y="227"/>
      <point x="532" y="244" type="curve"/>
      <point x="507" y="298" type="line"/>
    </contour>
    <contour>
      <point x="-29" y="634" type="line"/>
      <point x="-29" y="624" type="line"/>
      <point x="-12" y="590" type="line"/>
      <point x="449" y="590" type="line"/>
      <point x="449" y="601" type="line"/>
      <point x="430" y="634" type="line"/>
    </contour>
  </outline>
</glyph>
<glyph name="rashtrasign-deva" format="1">
  <advance width="0"/>
  <outline>
    <contour>
      <point x="-310" y="-83" type="line"/>
      <point x="-162" y="-231" type="line"/>
      <point x="-128" y="-205" type="line"/>
      <point x="-307" y="-31" type="line"/>
      <point x="-541" y="-179" type="line"/>
      <point x="-496" y="-219" type="line"/>
    </contour>
    <contour>
      <point x="-307" y="0" type="move" name="_bottom"/>
    </contour>
  </outline>
</glyph>
<glyph name="uni0938094D" format="1">
  <advance width="381"/>
  <outline>
    <contour>
      <point x="167" y="601" type="line"/>
      <point x="179" y="557"/>
      <point x="186" y="484"/>
      <point x="186" y="440" type="curve" smooth="yes"/>
      <point x="186" y="399"/>
      <point x="177" y="366"/>
      <point x="154" y="330" type="curve"/>
      <point x="106" y="372" type="line"/>
      <point x="90" y="366"/>
      <point x="67" y="346"/>
      <point x="67" y="323" type="curve" smooth="yes"/>
      <point x="67" y="287"/>
      <point x="82" y="250"/>
      <point x="131" y="194" type="curve" smooth="yes"/>
      <point x="314" y="-15" type="line"/>
      <point x="353" y="14" type="line"/>
      <point x="143" y="236" type="line"/>
      <point x="189" y="274"/>
      <point x="236" y="326"/>
      <point x="236" y="412" type="curve" smooth="yes"/>
      <point x="236" y="450"/>
      <point x="230" y="535"/>
      <point x="217" y="601" type="curve"/>
    </contour>
    <contour>
      <point x="183" y="287" type="line"/>
      <point x="195" y="287" type="line"/>
      <point x="225" y="264"/>
      <point x="272" y="222"/>
      <point x="352" y="222" type="curve" smooth="yes"/>
      <point x="378" y="222"/>
      <point x="430" y="229"/>
      <point x="480" y="262" type="curve"/>
      <point x="466" y="314" type="line"/>
      <point x="426" y="287"/>
      <point x="382" y="272"/>
      <point x="337" y="272" type="curve" smooth="yes"/>
      <point x="276" y="272"/>
      <point x="237" y="301"/>
      <point x="206" y="325" type="curve"/>
    </contour>
    <contour>
      <point x="-29" y="634" type="line"/>
      <point x="-29" y="624" type="line"/>
      <point x="-12" y="590" type="line"/>
      <point x="399" y="590" type="line"/>
      <point x="399" y="601" type="line"/>
      <point x="381" y="634" type="line"/>
    </contour>
  </outline>
</glyph>
<glyph name="uni0938094D0930" format="1">
  <advance width="750"/>
  <outline>
    <contour>
      <point x="167" y="601" type="line"/>
      <point x="179" y="557"/>
      <point x="186" y="484"/>
      <point x="186" y="440" type="curve" smooth="yes"/>
      <point x="186" y="399"/>
      <point x="177" y="366"/>
      <point x="154" y="330" type="curve"/>
      <point x="106" y="372" type="line"/>
      <point x="90" y="366"/>
      <point x="67" y="346"/>
      <point x="67" y="323" type="curve" smooth="yes"/>
      <point x="67" y="287"/>
      <point x="82" y="250"/>
      <point x="131" y="194" type="curve" smooth="yes"/>
      <point x="314" y="-15" type="line"/>
      <point x="353" y="14" type="line"/>
      <point x="143" y="236" type="line"/>
      <point x="189" y="274"/>
      <point x="236" y="326"/>
      <point x="236" y="412" type="curve" smooth="yes"/>
      <point x="236" y="450"/>
      <point x="230" y="535"/>
      <point x="217" y="601" type="curve"/>
    </contour>
    <contour>
      <point x="328" y="185" type="line"/>
      <point x="367" y="143" type="line"/>
      <point x="600" y="262" type="line"/>
      <point x="600" y="319" type="line"/>
    </contour>
    <contour>
      <point x="317" y="450"/>
      <point x="221" y="426"/>
      <point x="192" y="419" type="curve"/>
      <point x="221" y="367" type="line"/>
      <point x="262" y="382"/>
      <point x="333" y="399"/>
      <point x="393" y="398" type="curve" smooth="yes"/>
      <point x="452" y="397"/>
      <point x="516" y="378"/>
      <point x="592" y="296" type="curve"/>
      <point x="596" y="348" type="line"/>
      <point x="524" y="401"/>
      <point x="471" y="448"/>
      <point x="373" y="449" type="curve" smooth="yes"/>
    </contour>
    <contour>
      <point x="580" y="610" type="line"/>
      <point x="579" y="293" type="line"/>
      <point x="569" y="256" type="line"/>
      <point x="579" y="250" type="line"/>
      <point x="579" y="13" type="line"/>
      <point x="621" y="-11" type="line"/>
      <point x="634" y="-11" type="line"/>
      <point x="634" y="610" type="line"/>
    </contour>
    <contour>
      <point x="-29" y="634" type="line"/>
      <point x="-29" y="624" type="line"/>
      <point x="-12" y="590" type="line"/>
      <point x="750" y="590" type="line"/>
      <point x="750" y="601" type="line"/>
      <point x="732" y="634" type="line"/>
    </contour>
  </outline>
</glyph>
<glyph name="uni0936094D" format="1">
  <advance width="442"/>
  <outline>
    <contour>
      <point x="160" y="634"/>
      <point x="116" y="591"/>
      <point x="116" y="524" type="curve" smooth="yes"/>
      <point x="116" y="427"/>
      <point x="214" y="360"/>
      <point x="320" y="324" type="curve"/>
      <point x="341" y="366" type="line"/>
      <point x="266" y="381"/>
      <point x="166" y="444"/>
      <point x="166" y="512" type="curve" smooth="yes"/>
      <point x="166" y="565"/>
      <point x="203" y="590"/>
      <point x="240" y="590" type="curve" smooth="yes"/>
      <point x="303" y="590"/>
      <point x="348" y="529"/>
      <point x="348" y="472" type="curve" smooth="yes"/>
      <point x="348" y="361"/>
      <point x="270" y="265"/>
      <point x="153" y="224" type="curve"/>
      <point x="160" y="205" type="line"/>
      <point x="148" y="303" type="line"/>
      <point x="141" y="306"/>
      <point x="132" y="308"/>
      <point x="119" y="308" type="curve" smooth="yes"/>
      <point x="89" y="308"/>
      <point x="51" y="285"/>
      <point x="51" y="239" type="curve" smooth="yes"/>
      <point x="51" y="214"/>
      <point x="82" y="181"/>
      <point x="147" y="181" type="curve"/>
      <point x="255" y="181"/>
      <point x="398" y="324"/>
      <point x="398" y="452" type="curve" smooth="yes"/>
      <point x="398" y="558"/>
      <point x="314" y="634"/>
      <point x="220" y="634" type="curve"/>
    </contour>
    <contour>
      <point x="304" y="-15" type="line"/>
      <point x="348" y="18" type="line"/>
      <point x="159" y="198" type="line"/>
      <point x="115" y="201" type="line"/>
    </contour>
    <contour>
      <point x="-29" y="634" type="line"/>
      <point x="-29" y="624" type="line"/>
      <point x="-12" y="590" type="line"/>
      <point x="461" y="590" type="line"/>
      <point x="461" y="601" type="line"/>
      <point x="442" y="634" type="line"/>
    </contour>
  </outline>
</glyph>
<glyph name="uni0924094D0930" format="1">
  <advance width="554"/>
  <outline>
    <contour>
      <point x="71" y="71" type="line"/>
      <point x="111" y="28" type="line"/>
      <point x="403" y="268" type="line"/>
      <point x="403" y="325" type="line"/>
    </contour>
    <contour>
      <point x="384" y="610" type="line"/>
      <point x="383" y="289" type="line"/>
      <point x="337" y="265" type="line"/>
      <point x="383" y="249" type="line"/>
      <point x="383" y="13" type="line"/>
      <point x="426" y="-11" type="line"/>
      <point x="438" y="-11" type="line"/>
      <point x="438" y="610" type="line"/>
    </contour>
    <contour>
      <point x="133" y="449"/>
      <point x="57" y="425"/>
      <point x="36" y="417" type="curve"/>
      <point x="65" y="365" type="line"/>
      <point x="95" y="376"/>
      <point x="150" y="399"/>
      <point x="197" y="398" type="curve" smooth="yes"/>
      <point x="256" y="397"/>
      <point x="320" y="378"/>
      <point x="396" y="296" type="curve"/>
      <point x="400" y="359" type="line"/>
      <point x="328" y="412"/>
      <point x="275" y="448"/>
      <point x="177" y="449" type="curve" smooth="yes"/>
    </contour>
    <contour>
      <point x="-29" y="634" type="line"/>
      <point x="-29" y="624" type="line"/>
      <point x="-12" y="590" type="line"/>
      <point x="554" y="590" type="line"/>
      <point x="554" y="601" type="line"/>
      <point x="535" y="634" type="line"/>
    </contour>
  </outline>
</glyph>
